STARTFONT 2.3
FONT -FontForge-Fontdiner Swanky-Book-R-Normal--32-320-72-72-P-202-ISO10646-1
SIZE 32 72 72  2
FONTBOUNDINGBOX 45 49 -8 -16
COMMENT "Generated by fontforge, http://fontforge.sourceforge.net"
COMMENT "Copyright (c) 2010 by Font Diner, Inc. All rights reserved."
STARTPROPERTIES 40
FOUNDRY "FontForge"
FAMILY_NAME "Fontdiner Swanky"
WEIGHT_NAME "Book"
SLANT "R"
SETWIDTH_NAME "Normal"
ADD_STYLE_NAME ""
PIXEL_SIZE 32
POINT_SIZE 320
RESOLUTION_X 72
RESOLUTION_Y 72
SPACING "P"
AVERAGE_WIDTH 202
CHARSET_REGISTRY "ISO10646"
CHARSET_ENCODING "1"
FONTNAME_REGISTRY ""
CHARSET_COLLECTIONS "ISO10646-1"
BITS_PER_PIXEL 2
FONT_NAME "FontdinerSwanky-Regular"
FACE_NAME "Fontdiner Swanky Regular"
COPYRIGHT "Copyright (c) 2010 by Font Diner, Inc. All rights reserved."
FONT_VERSION "1.001"
FONT_ASCENT 26
FONT_DESCENT 6
UNDERLINE_POSITION -3
UNDERLINE_THICKNESS 2
X_HEIGHT 17
CAP_HEIGHT 19
RAW_ASCENT 799
RAW_DESCENT 200
NORM_SPACE 10
RELATIVE_WEIGHT 40
RELATIVE_SETWIDTH 50
SUPERSCRIPT_X 0
SUPERSCRIPT_Y 14
SUPERSCRIPT_SIZE 20
SUBSCRIPT_X 0
SUBSCRIPT_Y 4
SUBSCRIPT_SIZE 20
AVG_LOWERCASE_WIDTH 203
AVG_UPPERCASE_WIDTH 247
ENDPROPERTIES
CHARS 231
STARTCHAR space
ENCODING 32
SWIDTH 320 0
DWIDTH 10 0
BBX 1 1 0 0
BITMAP
00
ENDCHAR
STARTCHAR exclam
ENCODING 33
SWIDTH 305 0
DWIDTH 10 0
BBX 10 28 0 -1
BITMAP
03FA90
03FFE0
03FFD0
03FFD0
03FFC0
03FFC0
07FF80
07FF40
07FF40
07FF00
07FF00
07FE00
07FE00
07FD00
07FD00
0BFC00
0BFC00
0BF800
0BF400
0BF400
0BF000
001000
064000
3FE000
BFF400
BFF400
2FE000
014000
ENDCHAR
STARTCHAR quotedbl
ENCODING 34
SWIDTH 369 0
DWIDTH 12 0
BBX 12 9 0 12
BITMAP
BFDBFD
BFD7FD
7FC7FD
7FC7FC
7FC7FC
7FC3FC
3F83FC
3F83F8
154154
ENDCHAR
STARTCHAR numbersign
ENCODING 35
SWIDTH 702 0
DWIDTH 22 0
BBX 22 21 0 1
BITMAP
001A9006A000
002FE00BE000
002FD00BE000
002FD00BE000
2ABFE55FE550
2FFFFFFFFFF0
3FFFFFFFFFF0
3FFFFFFFFFE0
157FD56FD400
003F801FD000
003F802FD000
003F802FC000
007F402FC000
6BFFFFFFFFD0
BFFFFFFFFFC0
FFFFFFFFFFC0
6ABFAABFFFC0
00BF007F8000
00BF007F8000
00BE007F8000
00BE00BF8000
ENDCHAR
STARTCHAR dollar
ENCODING 36
SWIDTH 545 0
DWIDTH 17 0
BBX 17 28 0 -4
BITMAP
0005500000
001FF00000
001FF00000
000FF00000
000FE00100
01BFF90300
0BFFFF8700
2FFABFFF00
7FC006FF00
BF8000BF00
BFE0002F00
BFFD000B00
3FFFE40200
1FFFFF9000
07FFFFF800
00BFFFFE00
2007FFFF80
38002FFFC0
3E0002FFC0
3F8000BFC0
7FF801FF80
7FFFFFFF40
79FFFFF900
A01BFE5000
4007F80000
0007F80000
0007F80000
0007F80000
ENDCHAR
STARTCHAR percent
ENCODING 37
SWIDTH 657 0
DWIDTH 21 0
BBX 22 27 0 -2
BITMAP
0000000A4000
0154001FF400
1FFF402FF000
3FFFD03FD000
7F4FE0BFC000
BE07F0FF8000
BE0BF1FF4000
7F5FE2FE0000
2FFFC3FD0000
0BFE0BFC0000
00500FF40000
00001FF00000
00002FE00000
00007FC00000
0000BF800000
0000FF400000
0001FE015000
0002FD1FFE00
0007FC7FFFC0
000BF8BF5FD0
000FF0FE0BE0
001FE0FE0BE0
002FD0BF5FD0
007F803FFF80
00BF400BFE00
007F00005000
000500000000
ENDCHAR
STARTCHAR ampersand
ENCODING 38
SWIDTH 668 0
DWIDTH 21 0
BBX 25 28 1 -4
BITMAP
002BF900000000
02FFFF80000000
0BF96FE0000000
1FF00FF0000000
1FE00BF4000000
1FE007F4000000
1FF40BF0000000
0BFD0FE0000000
07FF2F80000000
02FFFE00000000
00BFF800000000
007FF402000000
01FFFD02800000
0BFBFF01D00000
1FE2FFC1F00000
3FC0FFE1FC0000
BFC07FFAFE0000
FFC02FFFEA4000
FFD00BFF800140
FFF403FFC5BD00
BFFEABFFFFE000
3FFFFFFFFF4000
1FFFFE6FF80000
02FFA02FD00000
0000007E000000
000000F4000000
00000180000000
00000100000000
ENDCHAR
STARTCHAR quotesingle
ENCODING 39
SWIDTH 177 0
DWIDTH 6 0
BBX 6 9 0 13
BITMAP
5540
BFD0
BFD0
7FC0
7FC0
7FC0
7F80
3F80
3F80
ENDCHAR
STARTCHAR parenleft
ENCODING 40
SWIDTH 384 0
DWIDTH 12 0
BBX 12 32 1 -5
BITMAP
000014
0001B4
000BD0
007F80
01FF00
03FD00
0BFC00
0FF400
1FF000
2FF000
3FE000
3FE000
7FD000
7FD000
7FD000
7FD000
7FD000
7FD000
7FE000
3FE000
3FF000
2FF400
1FF400
0FFC00
0BFD00
03FE00
01FF40
007F80
001FD0
0006F0
000078
000005
ENDCHAR
STARTCHAR parenright
ENCODING 41
SWIDTH 375 0
DWIDTH 12 0
BBX 11 32 0 -5
BITMAP
500000
3D0000
1FD000
07F800
02FD00
00FF40
00BFC0
007FD0
002FE0
002FF0
001FF4
001FF4
000FF8
000FF8
000FF8
000FF8
000FF8
000FF8
001FF8
001FF4
002FF4
003FF0
003FE0
007FD0
00FFC0
01FF40
03FE00
07F800
0FE000
2F4000
780000
400000
ENDCHAR
STARTCHAR asterisk
ENCODING 42
SWIDTH 640 0
DWIDTH 21 0
BBX 21 21 0 0
BITMAP
000400400000
006D00E00000
03FF01FD0000
02FF42FF8000
00BF83FFC000
003FD7FF0000
001FEBFD0000
540BFFF40000
7FEBFFE55A40
7FFFFFFFFF40
BFFFFFFFFF40
BFFFFFFFFF00
BFABFFE5AB00
500BFFF40000
001FEFFC0000
007FDBFE0000
00FF87FF8000
02FF43FF8000
01FE02F90000
002D01900000
000400000000
ENDCHAR
STARTCHAR plus
ENCODING 43
SWIDTH 607 0
DWIDTH 19 0
BBX 19 19 0 1
BITMAP
0003FE4000
0003FF4000
0003FF4000
0002FF4000
0002FF0000
0002FF0000
6956FF4000
BFFFFFFFFC
BFFFFFFFFC
BFFFFFFFFC
BFFFFFFFFC
6AA6FF5550
0002FE0000
0002FE0000
0002FE0000
0002FE0000
0001FE0000
0001FE0000
0001A90000
ENDCHAR
STARTCHAR comma
ENCODING 44
SWIDTH 226 0
DWIDTH 7 0
BBX 7 10 0 -7
BITMAP
0100
2FE0
7FF8
BFFC
7FFC
1BF8
03F0
07D0
0B40
0400
ENDCHAR
STARTCHAR hyphen
ENCODING 45
SWIDTH 549 0
DWIDTH 18 0
BBX 14 6 2 8
BITMAP
FAA95500
FFFFFFE0
FFFFFFE0
FFFFFFE0
FFFFFFD0
AAA55540
ENDCHAR
STARTCHAR period
ENCODING 46
SWIDTH 226 0
DWIDTH 7 0
BBX 7 6 0 -3
BITMAP
0680
3FF4
BFF8
BFFC
7FF4
0A90
ENDCHAR
STARTCHAR slash
ENCODING 47
SWIDTH 600 0
DWIDTH 19 0
BBX 21 30 -1 -2
BITMAP
00000000E000
00000002FD00
00000007FF80
0000000BFF80
0000001FFF00
0000003FFE00
0000007FFC00
000000FFF400
000002FFE000
000007FFC000
00000BFF4000
00001FFE0000
00003FFD0000
0000BFF80000
0000FFF00000
0002FFD00000
0007FF800000
000FFF000000
001FFD000000
003FF8000000
00BFF4000000
01FFE0000000
02FFC0000000
07FF40000000
0FFE00000000
1FFC00000000
3FF800000000
BFF000000000
7FD000000000
0B8000000000
ENDCHAR
STARTCHAR zero
ENCODING 48
SWIDTH 740 0
DWIDTH 24 0
BBX 23 21 0 0
BITMAP
000001400000
0002BFFE4000
002FFFFFF400
01FFFFFFFE00
07FFE40BFF80
0FFF4001FFE0
2FFD0000BFF0
3FF800003FF4
3FF400002FF8
7FF000002FFC
7FF000001FFC
7FF000001FFC
7FF000002FFC
3FF400002FF8
2FF800003FF4
1FFD0000BFE0
0BFF4002FFD0
02FFE55FFF40
00BFFFFFFD00
001BFFFFE000
0001AFE90000
ENDCHAR
STARTCHAR one
ENCODING 49
SWIDTH 503 0
DWIDTH 16 0
BBX 20 24 -2 -1
BITMAP
00001AE000
005BFFE000
6BFFFFE000
06BFFFE000
0005FFE000
0000FFE000
0000FFE000
0000FFE000
0000FFE000
0000FFE000
0000BFE000
0000BFD000
0000BFD000
0000BFD000
0000BFD000
0000BFD000
0000BFD000
0000BFD000
00007FD000
00007FD000
00007FD000
0006FFF900
007FFFFF90
07FFFFFFF9
ENDCHAR
STARTCHAR two
ENCODING 50
SWIDTH 638 0
DWIDTH 20 0
BBX 21 26 -1 -1
BITMAP
040000000000
0D0000000000
0B006FF90000
0B86FFFFD000
07EFFFFFF400
07FFE56FFD00
07FF4007FF00
03FD0002FF40
03F80001FF40
02F00001FF40
02D00002FF40
02C00003FF00
0180000BFE00
0140007FF800
000006FFE140
00007FFE4200
0002FFE40700
001FFE400B00
00BFF4001F00
02FFD0002F00
07FF00007F00
0FFE1555BE00
2FFFFFFFFE00
3FFFFFFFFE00
7FFFFFFFFE00
155AAAAFFE00
ENDCHAR
STARTCHAR three
ENCODING 51
SWIDTH 620 0
DWIDTH 20 0
BBX 20 28 -1 -3
BITMAP
1000000000
2000000000
2800554000
1D07FFF900
0F6FFFFF80
0FFFFFFFF0
0BFE407FF8
07F4001FFD
07E0000BFD
03C00007FE
03400007FD
0200000FFC
0000007FF8
0001FFFFE0
0001FFFFF0
0001FFFFFC
010001BFFE
0200002FFF
0340000FFF
0780000BFF
0BD0000FFF
0FF4001FFE
0FFE41BFFD
1FFFFFFFF4
2D2FFFFFD0
3806FFF900
2000154000
4000000000
ENDCHAR
STARTCHAR four
ENCODING 52
SWIDTH 606 0
DWIDTH 19 0
BBX 21 27 -2 -2
BITMAP
000000004000
000000018000
000000038000
0000000F8000
0000002F8000
000000BF8000
000001FF8000
000007FF8000
00000FFF8000
00003FFF8000
0000BFFF8000
0002FFFF8000
0007FDFF8040
001FF1FF8180
007FD1FF4280
00FF41FF4780
02FD01FF4F80
0BFFFFFFFF80
2FFFFFFFFF40
6AAAAAFFAF40
000000FF4B40
000000FF4340
000000FF4240
000000FF4140
000001FF4000
00006FFFF400
0007FFFFFE40
ENDCHAR
STARTCHAR five
ENCODING 53
SWIDTH 610 0
DWIDTH 20 0
BBX 19 25 0 -1
BITMAP
0000000160
00005ABFF0
16AFFFFFF0
FFFFFFFFF0
BFFFFFFBE0
BFE95002E0
7FC00001D0
7FD00000D0
3FD0000090
3FEBFE9040
2FFFFFFD00
1FFFFFFF40
1FE56FFFD0
0E4002FFF0
040000BFF4
0000007FF4
0000003FF8
1800003FF4
2D00007FF4
2F4000FFF0
3FE407FFE0
3FFFFFFFC0
3EFFFFFF40
747FFFF800
5006FF9000
ENDCHAR
STARTCHAR six
ENCODING 54
SWIDTH 619 0
DWIDTH 20 0
BBX 20 29 0 -3
BITMAP
0000000080
00000000C0
00000002C0
00005403C0
000BFF87D0
007FFFFBD0
01FFFFFFD0
03FFFBFFE0
0BFF802FE0
0FFE0002E0
1FFC0000B0
3FF95A5020
3FFFFFFE00
7FFFFFFFD0
BFFF95BFF4
BFFD002FFC
FFF4000FFD
FFF0000BFE
FFE00007FE
FFE00007FE
BFE00007FE
BFE00007FD
7FF0000BFD
2FF4001FF8
1FFD007FF4
07FFAAFFD0
01FFFFFF40
001BFFE400
0000140000
ENDCHAR
STARTCHAR seven
ENCODING 55
SWIDTH 598 0
DWIDTH 19 0
BBX 21 25 0 -2
BITMAP
BAAA95550000
BFFFFFFFFF80
7FFFFFFFFF40
3FFFFFFFFF00
2FD0057FFD00
1FC0007FFC00
0F8000BFF800
0B4000BFF400
074000FFF000
030001FFD000
010002FFC000
000002FF8000
000003FF4000
000007FF0000
00000BFD0000
00000BFC0000
00000FF80000
00001FF40000
00002FE00000
00002FD00000
00003FC00000
0002FFD00000
002FFFFD0000
02FFFFFFD000
0155556AA800
ENDCHAR
STARTCHAR eight
ENCODING 56
SWIDTH 642 0
DWIDTH 21 0
BBX 21 26 0 -3
BITMAP
00016A400000
001FFFF90000
00FFFFFF8000
03FF95FFE000
0BFE003FF400
0FFD001FFC00
1FFC000FFC00
1FF8000FFD00
1FFC000FFC00
1FFC001FFC00
0BFE002FF800
07FF95BFF000
02FFFFFFD000
0BFFFFFFF400
2FFFEAFFFD00
7FFE002FFF00
BFF8000FFF40
FFF40007FF80
FFF00007FF80
FFF00007FF80
BFF8000BFF40
7FFD001FFF00
2FFF40BFFD00
0BFFFFFFF400
01BFFFFF8000
0006BFA40000
ENDCHAR
STARTCHAR nine
ENCODING 57
SWIDTH 610 0
DWIDTH 20 0
BBX 20 27 0 -4
BITMAP
0016BA4000
00BFFFF800
07FFFFFF40
1FFE01FFC0
3FF8003FE0
7FF0002FF4
BFE0001FF8
FFE0000FFC
FFD0000FFD
FFE0001FFD
BFF0002FFD
BFF4003FFD
3FFD01FFFD
1FFFAFFFFC
07FFFFFFFC
01BFFFFFF8
141AAA6FF8
1D00003FF0
0F4000BFE0
0FE402FFD0
0BFEAFFF80
0BFFFFFE00
0BFFFFF800
07C7FFD000
0740550000
0300000000
0200000000
ENDCHAR
STARTCHAR colon
ENCODING 58
SWIDTH 223 0
DWIDTH 7 0
BBX 7 14 0 -3
BITMAP
1A80
7FF0
FFF8
FFF8
7FF0
0640
0000
0000
0A40
7FE0
FFF4
FFF8
7FF4
1A80
ENDCHAR
STARTCHAR semicolon
ENCODING 59
SWIDTH 228 0
DWIDTH 7 0
BBX 7 18 0 -7
BITMAP
1A80
7FF0
BFF8
BFF8
7FF0
0640
0000
0000
0500
2FD0
BFF4
FFF8
BFF8
2FF4
07E0
0BC0
0E00
1400
ENDCHAR
STARTCHAR less
ENCODING 60
SWIDTH 563 0
DWIDTH 18 0
BBX 19 21 0 0
BITMAP
0000000060
00000007F0
0000002FF4
000002FFF4
00001FFFF8
0001BFFFF8
000BFFFF90
007FFFFD00
06FFFFD000
2FFFFD0000
BFFFD00000
1BFF800000
01FFE00000
002FFD0000
0007FF4000
0000BFE000
00001FF800
000002FF40
0000006FD0
00000007E0
0000000090
ENDCHAR
STARTCHAR equal
ENCODING 61
SWIDTH 531 0
DWIDTH 17 0
BBX 17 13 0 2
BITMAP
BAAA555400
FFFFFFFF80
FFFFFFFF80
FFFFFFFF80
FFFFFFFF80
5555550000
0000000000
6AAABFFF80
FFFFFFFF80
FFFFFFFF80
FFFFFFFF80
AAAFFFFF80
0000005540
ENDCHAR
STARTCHAR greater
ENCODING 62
SWIDTH 576 0
DWIDTH 18 0
BBX 19 21 0 0
BITMAP
2800000000
3F40000000
7FE4000000
7FFE000000
BFFFD00000
BFFFF90000
1BFFFF8000
01BFFFF400
001FFFFE40
0001FFFFE0
00001FFFF8
00000BFF90
00002FFD00
0001FFE000
0007FF4000
002FF80000
00BFD00000
07FE000000
1FE4000000
1F40000000
1800000000
ENDCHAR
STARTCHAR question
ENCODING 63
SWIDTH 592 0
DWIDTH 19 0
BBX 19 29 0 -1
BITMAP
0400000000
0D00000000
1E05500000
1FFFFF9000
2FFFFFFD00
3F906FFF80
3D0002FFD0
7400007FF0
9000002FF4
4000001FF8
0000001FF8
0000002FF8
0000003FF8
000000BFF4
00A517FFE0
00BFFFFF80
00BFFFFD00
00FFEA5000
00FFC00000
01FF800000
01FF400000
01BE000000
0005000000
0140000000
2FF8000000
7FFD000000
7FFE000000
2FFD000000
06E4000000
ENDCHAR
STARTCHAR at
ENCODING 64
SWIDTH 792 0
DWIDTH 25 0
BBX 27 24 0 -2
BITMAP
00000155400000
0001BFFFF90000
001FFFFFFF8000
00BFF5006FF400
02FF400007FD00
0BF806FE40FF00
1FF02FFFE07F80
3FD0FD0BF42FD0
7F81FD02F81FE0
BF41FD02FC1FF0
FF40FC01FC0FF0
FF001552FC0FF0
FF007FFFFC0FF4
FF02FFABFC0FF0
BF43FC03F80FF0
BF83FC03F81FE0
7FC3FE57F81FD0
3FE1FFFFF82FC0
1FF41AABF83F40
0BFD0003FEFD00
01FF8000BFF400
006FF9401A4000
0001BFFE800000
00000010000000
ENDCHAR
STARTCHAR A
ENCODING 65
SWIDTH 788 0
DWIDTH 25 0
BBX 36 29 -5 -7
BITMAP
000155500000000000
00006FFFFD00000000
000006FFFE00000000
0000006FFF40000000
00000007FF80000000
00000002FFD0000000
00000007FFE0000000
0000000FFFF4000000
0000001FBFF8000000
0000003F2FFD000000
0000007E0FFE000000
000000FC0BFF400000
000001F403FF800000
000003F002FFD00000
00000BFEAAFFE00000
00000FFFFFFFF40000
00002FFFFFFFF80000
00003F55543FFD0000
0000BD00001FFE0000
0000F800000FFF4000
0007F400000BFF8000
01BFFE000003FFC000
1BFFFF900002FFE000
56AAFFF80001FFF900
000000150000FFFFF9
000000000002FFFFF9
000000000007FFF900
00000000001FF90000
000000000069000000
ENDCHAR
STARTCHAR B
ENCODING 66
SWIDTH 774 0
DWIDTH 25 0
BBX 28 26 -3 -4
BITMAP
55400000000000
7FFFFFFFE94000
0BFFFFFFFFF900
00BFFFFFFFFFD0
001FFF505AFFF8
000BFF00002FFD
000BFF00000BFE
000BFF000007FE
000BFF00000BFE
0007FF00002FFC
0007FF0016FFF4
0007FFFFFFFFD0
0007FFFFFFFE00
0003FFFFFFF900
0003FF96BFFF80
0003FF8006FFE0
0003FF8000BFF4
0002FF80007FF8
0002FF80007FF8
0002FF8001FFF8
0002FF801BFFF0
0001FF96FFFF80
000BFFFFFFF900
007FFFFFFE4000
07FFFEA5000000
2A950000000000
ENDCHAR
STARTCHAR C
ENCODING 67
SWIDTH 766 0
DWIDTH 25 0
BBX 24 26 0 -2
BITMAP
000000000001
000000000003
00005AFE400A
0006FFFFF82E
002FFFFFFF7D
00FFFFA6FFFD
03FFF4001FFD
0BFFD00003FC
1FFF400000FC
2FFE00000078
3FFC00000028
7FFC00000014
7FF800000000
7FF800000000
7FF800000000
7FF800000000
3FFC00000010
2FFD00000020
1FFE00000034
0FFF40000078
07FFD00001F8
01FFF80007FC
00BFFFA6BFFC
001FFFFFFF9D
0002FFFFF906
00001AAA5001
ENDCHAR
STARTCHAR D
ENCODING 68
SWIDTH 833 0
DWIDTH 27 0
BBX 30 23 -3 -1
BITMAP
5555555555000000
1BFFFFFFFFE40000
01BFFFFFFFFF8000
000BFFFEABFFF400
0000BFF8007FFD00
0000BFF8000BFF00
0000BFF40003FF80
00007FF40001FFC0
00007FF40000FFD0
00007FF40000FFE0
00007FF40000FFE0
00003FF40000BFE0
00003FF40000BFE0
00003FF00000FFD0
00003FF00000FFD0
00002FF00001FFC0
00002FF00002FF80
00002FF00007FF00
00002FF0001FFD00
00007FFAAAFFF400
0002FFFFFFFFD000
002FFFFFFFF90000
01FEAA9555000000
ENDCHAR
STARTCHAR E
ENCODING 69
SWIDTH 781 0
DWIDTH 25 0
BBX 26 24 -2 -1
BITMAP
000000156AAFE0
55AAFFFFFFFFE0
6FFFFFFFFFFFE0
01BFFFD5501FE0
0007FF80000BE0
0003FF800007D0
0003FF800803D0
0003FF801801D0
0003FF803800D0
0003FF80780050
0003FF80F80010
0003FF96F80000
0003FFFFF80040
0003FFFFF80080
0002FFFFF80080
0002FF42F80180
0002FF40F80280
0002FF40780780
0002FF40280B80
0002FF40040F80
0002FF40001F80
002FFFFFFFFF80
06FFFFFFFFFFC0
6AAAAAAAAAAA40
ENDCHAR
STARTCHAR F
ENCODING 70
SWIDTH 731 0
DWIDTH 23 0
BBX 25 25 -2 -2
BITMAP
000000055AAB40
055AAFFFFFFF40
6FFFFFFFFFFF40
01BFFFE9507F40
000BFF40002F40
0007FF40001F40
0007FF40000F40
0007FF40200B40
0007FF40700740
0007FF40B00340
0007FF41F00240
0007FF57F00140
0003FFFFF00000
0003FFFFF00000
0003FFFFF00000
0003FF43F00000
0003FF41F00000
0003FF40F00000
0003FF00700000
0003FF00200000
0003FF00000000
0003FF00000000
001FFFE0000000
06FFFFFE400000
1AAAAAAAA40000
ENDCHAR
STARTCHAR G
ENCODING 71
SWIDTH 828 0
DWIDTH 27 0
BBX 29 26 0 -2
BITMAP
0000000000060000
00000000001E0000
00006BFF907E0000
000BFFFFFEFD0000
007FFFFFFFFD0000
01FFFE95BFFD0000
03FFF4001FFD0000
0BFFC00002FC0000
1FFF400000FC0000
2FFE0000007C0000
3FFD0000002C0000
7FFC000000080000
7FFC000000040000
7FFC01AAAAAAAA40
7FFC000BFFFFF800
7FFC00006FFF4000
3FFD000007FE0000
2FFE000007FE0000
1FFF000007FE0000
0FFF80000BFF0000
07FFE0000FFF0000
01FFF9007FFF0000
007FFFEBFFAF0000
001BFFFFFD0B4000
0001BFFF90014000
0000015000000000
ENDCHAR
STARTCHAR H
ENCODING 72
SWIDTH 797 0
DWIDTH 26 0
BBX 31 26 -3 -3
BITMAP
0000000555555550
00000002FFFFFF90
000000001FFFF900
6FFFFFAA41FFD000
06FFFFF401FFD000
006FFF4001FFD000
000FFE0001FFD000
000FFE0001FFD000
000FFE0001FFD000
000FFE0000FFD000
000BFE0000FFC000
000BFE0000FFC000
000BFE5555FFC000
000BFFFFFFFFC000
000BFFFFFFFFC000
000BFFFA95FFC000
000BFE0000FFC000
000BFE0000FFC000
000BFD0000FFC000
000BFD0000FFC000
000BFD0001FFD000
0007FD001BFFFE00
0007FD06FFFFFFE4
001FFF4000000000
06FFFFF900000000
6AAAAAAA90000000
ENDCHAR
STARTCHAR I
ENCODING 73
SWIDTH 445 0
DWIDTH 14 0
BBX 19 25 -2 -3
BITMAP
BFFFFFFFE4
06FFFFFE40
006FFFD000
0007FF4000
0007FF4000
0007FF4000
0007FF4000
0007FF4000
0003FF4000
0003FF4000
0003FF4000
0003FF4000
0003FF4000
0003FF0000
0003FF0000
0003FF0000
0003FF0000
0002FF0000
0002FF0000
0002FF0000
0002FF0000
0002FF0000
001BFF9000
01BFFFFE00
1AAAAAAAA0
ENDCHAR
STARTCHAR J
ENCODING 74
SWIDTH 718 0
DWIDTH 23 0
BBX 29 28 -3 -4
BITMAP
0000000000000540
00000000016BFD00
00000016BFFFD000
0005AFFFFFFE0000
000056BFFFF00000
00000000BFF40000
000000007FF40000
000000003FF40000
000000003FF80000
000000002FF80000
000000002FFC0000
000000001FFC0000
000000001FFC0000
000000000FFD0000
000000000FFD0000
000000000FFD0000
000000000FFD0000
000000000BFD0000
AAAAAA800FFD0000
1BFFF9000FFD0000
01BFD0000FFC0000
003FC0001FFC0000
002FD0002FF80000
001FE0007FF00000
000BF801FFD00000
0003FFAFFF800000
0000BFFFFD000000
00001BFE90000000
ENDCHAR
STARTCHAR K
ENCODING 75
SWIDTH 934 0
DWIDTH 30 0
BBX 38 27 -2 -3
BITMAP
00000555540000000000
6FFFFFFF900000000000
06FFFFF906AAAAAAA400
001BFF8001BFFFFF8000
0007FF80001BFFE40000
0007FF80001BFD000000
0007FF8000BFE0000000
0007FF4007FF40000000
0007FF406FF800000000
0007FF42FF9000000000
0003FF5FFE0000000000
0003FFFFFF0000000000
0003FFFEFFC000000000
0003FFE07FE000000000
0003FF402FF800000000
0003FF400FFD00000000
0002FF4007FF40000000
0002FF4002FFC0000000
0002FF0000FFE0000000
0002FF00007FF8000000
0002FF00001FFE000000
0007FF90000BFF400000
007FFFFE4003FFD00000
0BFFFFFFF901FFF40000
000000000007FFFF4000
0000000001BFFFFFF900
0000000006AAAAAAAA90
ENDCHAR
STARTCHAR L
ENCODING 76
SWIDTH 712 0
DWIDTH 23 0
BBX 25 25 -2 0
BITMAP
6FFFFFFFF80000
06FFFFFE400000
001BFFE4000000
0003FFC0000000
0003FFC0000000
0003FFC0000000
0003FFC0000000
0003FFC0000000
0003FFC0000000
0002FFC0000000
0002FFC0000000
0002FFC0000040
0002FFC0000180
0002FF80000280
0002FF80000380
0001FF80000780
0001FF80000B80
0001FF80001F80
0001FF80002F80
0001FF80003F80
0001FF80007F80
0006FFFAAAFF80
006FFFFFFFFF80
06FFFFFFFFFA40
1AA95550000000
ENDCHAR
STARTCHAR M
ENCODING 77
SWIDTH 1033 0
DWIDTH 33 0
BBX 37 25 -2 -1
BITMAP
00000000000004000000
6AAAAA8000002FFFFE40
1BFFFFD000007FFFE400
007FFFF00000BFFE4000
000BFFF40001FFFC0000
0007FFFC0003FFFC0000
0007FFFD0007FFFC0000
0007FFFF000FFFFC0000
0003FFFF402FFFFC0000
0003FFFFC03FBFF80000
0003FBFFD0BF7FF80000
0003F9FFF1FD7FF80000
0002F8BFF6FC7FF80000
0002F87FFFF47FF80000
0002F82FFFF07FF80000
0002F80FFFD07FF80000
0002F807FFC07FF40000
0001F803FF407FF40000
0001FC01FF003FF40000
0001FC00BD003FF40000
0001FC007C003FF40000
0000FC0024007FF40000
0006FE400007FFFF9000
01BFFFFA406FFFFFFE40
6AAAAAAAA40000000000
ENDCHAR
STARTCHAR N
ENCODING 78
SWIDTH 840 0
DWIDTH 27 0
BBX 33 25 -3 -1
BITMAP
000000000000055540
2AAAAA91BFFFFFFE00
06FFFFF407FFFFE000
006FFFFC006FFE0000
0002FFFE0002F80000
0000FFFF8002F40000
0000FFFFD002F40000
0000FFFFF402F40000
0000FEFFFC02F40000
0000FCBFFE02F40000
0000FC3FFF82F40000
0000FC0FFFD2F40000
0000FC07FFF6F40000
0000FC01FFFEF40000
0000FC00BFFFF40000
0000FD002FFFF40000
0000FD000BFFF40000
0000FD0003FFF40000
0000FD0000FFF40000
0000FD00007FF40000
0002FE40001FF40000
006FFFF9000BF40000
06FFFFFFE402F00000
6AAAAAAAAE40B00000
000000000000300000
ENDCHAR
STARTCHAR O
ENCODING 79
SWIDTH 808 0
DWIDTH 26 0
BBX 26 21 0 -1
BITMAP
000016AA400000
0006FFFFF90000
007FFFFFFFD000
02FFFE56FFF400
07FFE0007FFD00
1FFF40001FFF00
2FFE00000BFF40
3FFC000007FF80
7FF8000003FFC0
7FF8000002FFD0
7FF8000002FFD0
7FF8000002FFC0
3FFC000003FFC0
3FFD000007FF80
1FFE00000BFF40
0BFF40002FFE00
03FFE001BFF800
00BFFEAFFFE000
001FFFFFFF4000
0001BFFFE40000
00000554000000
ENDCHAR
STARTCHAR P
ENCODING 80
SWIDTH 746 0
DWIDTH 24 0
BBX 26 22 -2 -1
BITMAP
55555540000000
2FFFFFFFFA4000
01FFFFFFFFF900
001FFFAAFFFF80
0007FE0006FFE0
0007FE00002FF0
0007FE00001FF0
0007FE00002FF0
0007FE0001BFD0
0007FF55AFFE40
0007FFFFFFE400
0007FFFFE50000
0007FF94000000
0007FF40000000
0007FF40000000
0007FF40000000
0007FF40000000
0007FF40000000
0007FF80000000
007FFFF4000000
06FFFFFF900000
6FFFFFFAA80000
ENDCHAR
STARTCHAR Q
ENCODING 81
SWIDTH 789 0
DWIDTH 25 0
BBX 28 31 1 -10
BITMAP
00006AA9000000
001BFFFFE00000
01FFFFFFFD0000
07FFF96FFF8000
1FFF4002FFE000
3FFD0000BFF400
7FF800003FF800
BFF000002FFC00
FFE000001FFD00
FFE000001FFD00
FFE000001FFD00
FFE000001FFD00
BFF000002FFC00
7FF400002FFC00
3FF800007FF400
1FFD0000FFE000
0BFF8007FFC000
02FFFABFFF4000
007FFFFFF80000
0006FFFF800000
000015FF800000
000000FFD00000
000000BFF00000
0000007FF94000
0000003FFFFFA5
0000003FFFFF94
000001FFFFE400
000007FFE40000
00001FF9000000
0000B900000000
00014000000000
ENDCHAR
STARTCHAR R
ENCODING 82
SWIDTH 826 0
DWIDTH 26 0
BBX 37 29 -2 -8
BITMAP
6AA95555000000000000
1BFFFFFFFE9000000000
00BFFFFFFFFE00000000
000BFFAAAFFFD0000000
0003FF0001BFF0000000
0003FF00001FF4000000
0003FF00000FF4000000
0003FF00001FF0000000
0003FF0001BFD0000000
0003FFAABFFE00000000
0003FFFFFFE400000000
0003FFFFFFC000000000
0003FF807FE000000000
0003FF802FF400000000
0003FF801FFC00000000
0003FF800BFE00000000
0003FF8003FF40000000
0003FF8002FFD0000000
0007FFC000FFE0000000
007FFFF900BFF8000000
06FFFFFFE03FFD000000
2AAAAAAAA91FFFAAAA40
00000000000FFFFFF400
000000000007FFFE4000
00000000000BFFD00000
00000000002FF9000000
0000000000BF40000000
0000000001E400000000
00000000050000000000
ENDCHAR
STARTCHAR S
ENCODING 83
SWIDTH 661 0
DWIDTH 21 0
BBX 21 25 0 -3
BITMAP
000000000140
001AFE900740
02FFFFFE4F40
0BFFABFFFF00
2FF8002FFF00
7FE00002FF00
BFE000007E00
BFF400001E00
BFFF90000A00
7FFFFF900100
2FFFFFFE0000
0BFFFFFFE000
01BFFFFFFC00
0006FFFFFF00
040016FFFF40
0800006FFF80
0A00000BFF80
0F400003FF80
0FE00007FF40
0FF9001FFE00
0FFFFAFFF800
1D2FFFFFD000
1C01AFE90000
140000000000
100000000000
ENDCHAR
STARTCHAR T
ENCODING 84
SWIDTH 754 0
DWIDTH 24 0
BBX 22 23 1 -1
BITMAP
555555555540
BFFFFFFFFFE0
BFFFFFFFFFE0
7F55FFF56FE0
7E00FFE00BD0
7D00FFE007D0
7C00FFE003D0
3800FFE002C0
3400FFE001C0
3000FFE001C0
2000FFE00080
0000FFD00000
0000BFD00000
0000BFD00000
0000BFD00000
0000BFD00000
0000BFD00000
0000BFD00000
0000BFD00000
0002FFE40000
002FFFFE4000
02FFFFFFE400
055556AAA900
ENDCHAR
STARTCHAR U
ENCODING 85
SWIDTH 725 0
DWIDTH 23 0
BBX 28 22 -2 -1
BITMAP
55400001BFFFF9
1FFFFAA01BFFD0
01FFFF4001FE00
007FF80000FD00
007FF40000FD00
007FF40000FD00
007FF40000FD00
007FF40000FD00
007FF40000FD00
00BFF40000BD00
00BFF40000BC00
00BFF40000BC00
00BFF40000BC00
00BFF40000BC00
007FF40000BC00
007FF80000F800
003FFD0002F400
002FFF0007F000
000FFFE56FD000
0007FFFFFF8000
0000BFFFFD0000
000006AA900000
ENDCHAR
STARTCHAR V
ENCODING 86
SWIDTH 786 0
DWIDTH 25 0
BBX 33 25 -4 -2
BITMAP
000000068000000000
000016FD0000000000
001AFFF401FA500000
1AFFFF80002FFFA500
5ABFFF400007FFFE40
0007FF800001FE4000
0002FFD00002F40000
0001FFE00003F00000
0000BFF0000BD00000
00007FF8000F800000
00003FFC002F400000
00001FFD007E000000
00000FFF00BD000000
000007FF41F8000000
000003FF82F4000000
000001FFD7E0000000
000000FFEBD0000000
0000007FFF80000000
0000003FFF00000000
0000001FFE00000000
0000000FFC00000000
0000000BF800000000
00000003F000000000
00000002E000000000
00000000C000000000
ENDCHAR
STARTCHAR W
ENCODING 87
SWIDTH 1026 0
DWIDTH 33 0
BBX 41 24 -4 -3
BITMAP
000055AAA0002950000000
6AFFFFFE400006FFE95000
06FFFFE40020006FFFFF40
001FFF4000B40006FF9000
0007FF8000FC0001F80000
0003FFC001FD0002F40000
0002FFD003FF0003F00000
0000FFE007FF8007D00000
0000BFF00FFFC00FC00000
00007FF41FFFE01F800000
00003FF82FFFF42F400000
00001FFC7FFFF83F000000
00000FFEBFAFFD7E000000
00000BFFFF1FFFBC000000
000007FFFE0BFFF8000000
000002FFFD07FFF4000000
000001FFF802FFF0000000
000000FFF401FFE0000000
0000007FE000BFD0000000
0000003FD0007F80000000
0000002F80003F40000000
0000001F40001F00000000
0000000A00000E00000000
0000000500000500000000
ENDCHAR
STARTCHAR X
ENCODING 88
SWIDTH 860 0
DWIDTH 28 0
BBX 33 22 -3 -2
BITMAP
00000156A400000000
06ABFFFF4001555900
006FFFF407FFFFE400
0001FFF400BFFE0000
00003FFC003FE00000
00001FFF01FF400000
000007FF87FC000000
000002FFEFE0000000
000000FFFF80000000
0000003FFE00000000
0000001FFF40000000
0000007FFFD0000000
000001FFFFF0000000
00000BFDFFF8000000
00002FE07FFD000000
0000FF802FFF400000
0007FD000BFFC00000
007FF80003FFE00000
1BFFFF4000FFFD0000
6AAAAFE006FFFFE400
000000002FFFFFFF40
00000000A555540000
ENDCHAR
STARTCHAR Y
ENCODING 89
SWIDTH 848 0
DWIDTH 27 0
BBX 33 24 -4 -3
BITMAP
05556AAA4000000000
6FFFFFF90000000000
01BFFFE000AAAA5540
0006FFF0001FFFFE00
0000BFF80002FF9000
00002FFE0001F90000
00000BFF4007E00000
000002FFD01F800000
000000FFF07E000000
0000007FFDFC000000
0000001FFFF0000000
00000007FFD0000000
00000001FF40000000
00000001FF40000000
00000001FF40000000
00000001FF80000000
00000001FF80000000
00000001FF80000000
00000001FF80000000
00000001FFC0000000
00000002FFE0000000
0000002FFFFE400000
000006FFFFFFF90000
000005555000000000
ENDCHAR
STARTCHAR Z
ENCODING 90
SWIDTH 685 0
DWIDTH 22 0
BBX 23 20 0 0
BITMAP
0001555555A4
7FFFFFFFFFF4
3FFFFFFFFFD0
3FEAAAAFFF80
2F80003FFE00
1F4000FFFC00
0F4002FFF400
0B000BFFD000
0A002FFF8000
06007FFF0010
0101FFFC0050
0003FFF400D0
000FFFE001D0
002FFF8003D0
00BFFF000BD0
01FFFD000FD0
07FFF9556FC0
1FFFFFFFFFC0
3FFFFFFFFFC0
555555555540
ENDCHAR
STARTCHAR bracketleft
ENCODING 91
SWIDTH 380 0
DWIDTH 12 0
BBX 12 31 2 -4
BITMAP
554000
FFFFFD
FFFFD0
FFFD00
FFD000
FFC000
FFC000
FFC000
FFC000
FFC000
BFC000
BFC000
BFC000
BFC000
BFC000
BFC000
BFC000
BFC000
BFC000
BFC000
BFC000
BFC000
7F8000
7F8000
7F8000
7F8000
7F8000
7FD000
7FF900
7FFF80
6AAAA4
ENDCHAR
STARTCHAR backslash
ENCODING 92
SWIDTH 680 0
DWIDTH 22 0
BBX 21 31 0 -3
BITMAP
01E000000000
0BF000000000
7FF800000000
7FFD00000000
2FFF00000000
0FFF40000000
07FFC0000000
02FFE0000000
01FFF4000000
00BFF8000000
003FFD000000
001FFF000000
000BFF400000
0003FFC00000
0001FFE00000
0000BFF40000
00007FF80000
00002FFD0000
00000FFF0000
000007FF8000
000002FFC000
000000FFE000
0000007FF400
0000003FF800
0000001FFD00
0000000BFF00
00000003FF80
00000001FFC0
00000000BF80
000000007900
000000001000
ENDCHAR
STARTCHAR bracketright
ENCODING 93
SWIDTH 371 0
DWIDTH 12 0
BBX 13 31 -2 -4
BITMAP
00005540
6FFFFF80
06FFFF80
002FFF80
0002FF40
0002FF40
0002FF40
0002FF40
0002FF40
0002FF40
0001FF40
0001FF40
0001FF40
0001FF40
0001FF40
0001FF40
0001FF00
0001FF00
0001FF00
0001FF00
0001FF00
0001FF00
0001FF00
0001FF00
0001FF00
0001FF00
0001FF00
0002FF00
001FFE00
01FFFE00
1BAAAA00
ENDCHAR
STARTCHAR asciicircum
ENCODING 94
SWIDTH 671 0
DWIDTH 22 0
BBX 21 19 0 9
BITMAP
00001C000000
00003E000000
00007F400000
0000FF800000
0002FFD00000
0007FFF00000
000BFFF80000
001FFFFD0000
003FFEFF0000
00BFF8BF8000
01FFF03FD000
02FFE01FF000
07FFC007F800
0FFF8002FC00
2FFF0000BE00
3FFE00003F40
BFFC00001FC0
BFF400000640
05B000000000
ENDCHAR
STARTCHAR underscore
ENCODING 95
SWIDTH 840 0
DWIDTH 27 0
BBX 27 7 0 -4
BITMAP
01555555555554
FFFFFFFFFFFFF8
FFFFFFFFFFFFF8
FFFFFFFFFFFFF8
FFFFFFFFFFFFFC
FFFFFFFFFFFFFC
00001555555554
ENDCHAR
STARTCHAR grave
ENCODING 96
SWIDTH 707 0
DWIDTH 23 0
BBX 7 9 9 18
BITMAP
0040
1BC0
7FD0
3FE0
1FF0
0FF4
07F8
03E4
0100
ENDCHAR
STARTCHAR a
ENCODING 97
SWIDTH 572 0
DWIDTH 18 0
BBX 20 19 0 -1
BITMAP
0006AA4000
00BFFFF400
03FFAFFD00
0FF402FF00
1FF401FF40
1FF800FF80
1FF400FF80
0BE000BF80
005655FF80
07FFFFFF80
1FFEABFF80
3FF001FF40
7FE002FF40
7FE002FF40
3FF957FF00
1FFFFFFF00
01BFFFFF80
000007FFF9
000006AA55
ENDCHAR
STARTCHAR b
ENCODING 98
SWIDTH 723 0
DWIDTH 23 0
BBX 27 29 -4 -5
BITMAP
00015AD0000000
5AFFFFD0000000
1BFFFFD0000000
006FFFD0000000
0002FFC0000000
0002FFC0000000
0002FFC0000000
0001FFC0000000
0001FFC0000000
0001FFC0000000
0001FFC0000000
0001FFC0000000
0001FFC0000000
0001FF80000000
0001FF86AA9000
0000FFFFFFFE40
0000FFFFFFFFD0
0000FFE406FFF0
0000FF8000BFF8
0000FF80003FF8
0000FF40002FF8
0000FF40002FF8
0000FF40003FF4
0000BF4000BFE0
0000BF4006FF80
0002FFAABFFE00
000BFFFFFFE400
007FFFFFE90000
01EA9540000000
ENDCHAR
STARTCHAR c
ENCODING 99
SWIDTH 589 0
DWIDTH 19 0
BBX 18 18 1 -2
BITMAP
0006AA4000
007FFFF800
02FFFFFE00
0BFE01FF80
2FF801FFC0
7FF001FFC0
BFE000FFC0
FFD0006E40
FFD0000000
FFD0000000
FFD0000010
BFE0000090
7FF40002D0
3FFD001BC0
1FFFE6BF40
07FFFFFE00
01BFFFF400
001AFE4000
ENDCHAR
STARTCHAR d
ENCODING 100
SWIDTH 713 0
DWIDTH 23 0
BBX 25 31 1 -6
BITMAP
00000BFAA95000
000000BFFFE000
00000007FFD000
00000001FFD000
00000001FFD000
00000001FFC000
00000001FFC000
00000002FF8000
00000002FF8000
00000002FF8000
00000002FF4000
00000002FF4000
00015502FF4000
006FFFE7FF0000
02FFFFFFFF0000
0FFFEABFFE0000
2FFD000BFE0000
7FF40003FE0000
BFE00003FD0000
BFD00003FD0000
BFD00007FC0000
BFD00007FC0000
7FE00007FC0000
3FF40007F80000
1FFE0007F80000
07FFFABFF80000
00BFFFFFF40000
0006BFEFFA4000
0000000BFFFA40
0000000BFA5000
00000004000000
ENDCHAR
STARTCHAR e
ENCODING 101
SWIDTH 593 0
DWIDTH 19 0
BBX 18 17 1 -2
BITMAP
0006A90000
00BFFFE000
07FFFFFC00
1FFE5BFE00
2FF402FF80
7FE000BFC0
BFD0007FD0
FFD5557FE0
FFFFFFFFE0
FFFFFFFFE0
BFD5555540
BFD0000000
3FF0000140
1FFE405E00
0BFFFFFC00
01FFFFE000
001BFA4000
ENDCHAR
STARTCHAR f
ENCODING 102
SWIDTH 507 0
DWIDTH 16 0
BBX 20 44 -2 -13
BITMAP
000001A900
00001FFFE0
00007FFFF8
0000FF82FD
0001FF00FE
0002FE01FF
0003FD02FF
0007FD01FF
0007FD0068
0007FD0000
0007FD0000
0007FD0000
0007FD0000
0007FD0000
0007FE0000
0BFFFFFFE0
0BFFFFFFE0
06ABFFAAA0
0002FF4000
0002FF4000
0002FF4000
0001FF8000
0001FF8000
0001FF8000
0000FFC000
0000FFC000
0000BFC000
0000BFD000
0000BFD000
00007FD000
00007FE000
00007FE000
00003FE000
00003FF000
00002FF000
19002FF000
7F802FF000
BFD02FE000
BFC03FD000
7F807FC000
2FD0FF8000
1FFFFE0000
07FFF80000
006A900000
ENDCHAR
STARTCHAR g
ENCODING 103
SWIDTH 606 0
DWIDTH 19 0
BBX 21 36 0 -16
BITMAP
00000007F900
0000001FFF40
0000003FFFC0
000014BEFFC0
001BFFF8FF80
00BFFFFD7E00
03FF46FF4000
0BFC00BFD000
1FF4003FE000
2FF0002FF400
3FE0001FF400
7FD0001FF800
7FE0001FF800
3FE0001FF400
2FF0002FF000
1FF8007FE000
07FD00FFC000
02FF9BFF0000
01BFFFF80000
07FEAA400000
0FFD00000000
0FFFFAA40000
0BFFFFFF4000
02FFFFFFF000
0BFF96BFFC00
2FF8001FFE00
7FE00007FF00
BFD00002FF40
FFC00001FF40
FFC00001FF40
BFD00002FF40
7FE00007FF00
2FF8001FFD00
0BFFAAFFF400
01FFFFFF8000
0016BFA40000
ENDCHAR
STARTCHAR h
ENCODING 104
SWIDTH 678 0
DWIDTH 22 0
BBX 28 31 -4 -3
BITMAP
00000140000000
0056BFD0000000
6FFFFFC0000000
06FFFFC0000000
0007FFC0000000
0002FFC0000000
0002FFC0000000
0002FFC0000000
0002FFC0000000
0002FF80000000
0002FF80000000
0002FF80000000
0001FF80000000
0001FF80000000
0001FF80000000
0001FFABE94000
0001FFFFFFE400
0001FFFABFFD00
0001FF8007FF00
0001FF4002FF80
0001FF4001FF80
0000FF4000FF80
0000FF4000FF80
0000FF4000FF40
0000FF0000FF40
0000FF4000FF00
000BFFE000FF00
007FFFFD01FF40
015500001BFFE0
00000000BFFFFD
00000000000001
ENDCHAR
STARTCHAR i
ENCODING 105
SWIDTH 393 0
DWIDTH 13 0
BBX 15 26 -1 0
BITMAP
00014000
000BF400
002FFD00
003FFE00
003FFE00
002FFC00
000BF400
00004000
00000000
6AAAA900
0BFFFD00
00BFFD00
000FFD00
000FFD00
000FFC00
000FFC00
000BFC00
000BFC00
000BF800
000BF800
000BF800
000BF800
000BF800
006FFD00
02FFFF80
1BFFFFF4
ENDCHAR
STARTCHAR j
ENCODING 106
SWIDTH 385 0
DWIDTH 12 0
BBX 14 35 -3 -11
BITMAP
00015000
000BF800
002FFD00
003FFE00
003FFE00
002FFC00
000BF400
00000000
00000540
05ABFF80
01FFFF80
001BFF80
0001FFC0
0000FFC0
0000FFC0
0000BFC0
0000BFD0
0000BFD0
00007FD0
00007FE0
00007FE0
00003FE0
00003FE0
00003FF0
00002FF0
00002FF0
00002FF0
1F801FF0
3FD01FF0
7FE01FF0
3FD02FE0
2FC03FD0
1FFAFF80
07FFFE00
006FA400
ENDCHAR
STARTCHAR k
ENCODING 107
SWIDTH 749 0
DWIDTH 24 0
BBX 31 29 -4 -3
BITMAP
00156A9000000000
6BFFFFD000000000
006BFFD000000000
0002FFD000000000
0002FFD000000000
0002FFD155555550
0002FFD0BFFFFF80
0001FFD01BFFF800
0001FFD002FF4000
0001FFC00BF80000
0001FFC02FD00000
0001FFC0BF400000
0000FFC7F8000000
0000FFDFF8000000
0000FFFFFD000000
0000FFFFFF000000
0000FFF5FF800000
0000FFC0BFD00000
0000BFC03FE00000
0000BFC01FF40000
0000BFC00BFC0000
0000BF8003FE0000
0000BF8001FF4000
0001BFE000BFC000
001BFFFE403FE400
01BFFFFEA42FFFA4
0154000000BFFFA4
0000000002FF9400
000000001E500000
ENDCHAR
STARTCHAR l
ENCODING 108
SWIDTH 369 0
DWIDTH 12 0
BBX 16 31 -3 -3
BITMAP
55555540
6FFFFF40
01BFFF40
000BFF40
0007FF40
0007FF40
0007FF00
0007FF00
0007FF00
0007FF00
0007FF00
0003FF00
0003FF00
0003FF00
0003FF00
0003FF00
0003FE00
0003FE00
0003FE00
0002FE00
0002FE00
0002FE00
0002FE00
0002FE00
0002FE00
0002FD00
0001FD00
0007FF40
002FFFF4
01FFFFFE
05554000
ENDCHAR
STARTCHAR m
ENCODING 109
SWIDTH 990 0
DWIDTH 32 0
BBX 37 16 -3 2
BITMAP
00000500000000000000
005AFF1AF9005AA00000
6FFFFFFFFF86FFFD0000
06FFFFFFFFFFFFFF4000
001BFFEABFFFEBFF8000
0003FF402FFF00FFC000
0003FE000FFD00BFC000
0003FE000BF8007FC000
0002FE000BF8007FC000
0002FD000BF4007FC000
0001FD000BF4007F8000
0001FD000BF4007F8000
0006FF400BF001FFD000
00BFFFE40BF01FFFF900
015555547FFD15556A40
0000001BFFFF90000000
ENDCHAR
STARTCHAR n
ENCODING 110
SWIDTH 643 0
DWIDTH 21 0
BBX 26 16 -3 2
BITMAP
00000500000000
005AFF06F90000
6FFFFFBFFFD000
06FFFFFFFFF000
001BFFEABFF400
0003FF402FF800
0003FE000FF800
0003FE000BF800
0002FE000BF800
0002FD000BF800
0001FD000BF800
0001FD000BF400
0006FE400BF400
00BFFFE40BF000
015555547FFD00
0000001BFFFF90
ENDCHAR
STARTCHAR o
ENCODING 111
SWIDTH 705 0
DWIDTH 23 0
BBX 23 17 0 -1
BITMAP
000005400000
001BFFFE4000
01FFFFFFF800
0BFFE56FFF00
1FFE0002FFC0
3FF40000BFE0
7FF000007FF0
BFE000003FF0
BFD000003FF4
BFE000003FF0
7FF000007FF0
3FF40000BFE0
1FFD0002FF80
07FF956FFE00
00BFFFFFF400
001AFFFE4000
000005000000
ENDCHAR
STARTCHAR p
ENCODING 112
SWIDTH 723 0
DWIDTH 23 0
BBX 26 26 -3 -8
BITMAP
00056A00000000
ABFFFF00000000
1BFFFF05540000
006FFFFFFF9000
0007FFFFFFFD00
0007FF955FFF40
0007FF0001FFC0
0007FF0000BFD0
0003FF00003FE0
0003FF00003FE0
0003FF00003FE0
0003FF00007FE0
0003FF0000BFD0
0003FF4002FF80
0002FFFAAFFF00
0002FFFFFFF800
0002FFBFFF9000
0002FF00540000
0002FF00000000
0001FF00000000
0001FF00000000
0001FF00000000
0001FF40000000
001BFFF8000000
01FFFFFF900000
1AAA9555500000
ENDCHAR
STARTCHAR q
ENCODING 113
SWIDTH 682 0
DWIDTH 22 0
BBX 25 25 0 -7
BITMAP
0000000BFFFF80
0000000FFFF800
001BFFAFFF8000
01FFFFFFFE0000
0BFFEABFFD0000
2FFD000FFD0000
3FF0000FFD0000
7FD0000FFD0000
BFC0000FFD0000
BFC0000FFC0000
BFD0000FFC0000
7FE0000FFC0000
2FF8000FFC0000
1FFE55BFFC0000
07FFFFFFFC0000
00BFFFFFF80000
0006A94FF80000
0000000FF80000
0000000FF80000
0000000FF80000
0000000FF40000
0000000FF40000
000001BFFE0000
00001BFFFFE400
00005AAAAFFE40
ENDCHAR
STARTCHAR r
ENCODING 114
SWIDTH 595 0
DWIDTH 19 0
BBX 22 20 -2 -1
BITMAP
00006B405500
016FFF4BFFC0
6FFFFFBFFFE0
06FFFFFFFFF0
000BFFF5FFF0
0007FFC07FD0
0003FF401A40
0003FF000000
0003FF000000
0002FF000000
0002FF000000
0002FF000000
0001FF000000
0001FF000000
0001FF000000
0001FFE40000
001BFFFF4000
00BFFFFFE400
07FEA5500000
050000000000
ENDCHAR
STARTCHAR s
ENCODING 115
SWIDTH 533 0
DWIDTH 17 0
BBX 17 20 0 -1
BITMAP
001AA40200
02FFFF4300
0FFFFFEB00
2FE01BFF00
7FC001FF00
7FD0003E00
7FF8000E00
3FFF900600
1FFFFE4100
07FFFFE400
01BFFFFD00
101BFFFF40
28006FFFC0
2E0002FFC0
2F8000BFC0
3FF400FF80
3FFFABFF40
39FFFFFD00
701AFA9000
5000000000
ENDCHAR
STARTCHAR t
ENCODING 116
SWIDTH 422 0
DWIDTH 14 0
BBX 16 30 -1 -1
BITMAP
0001A000
0002F000
0003F000
0007E000
000BE000
000FE000
003FD000
06FFD000
7FFFFA54
7FFFFFFD
6BFFFFFD
00FFD5A8
00FFC000
00FF8000
01FF8000
01FF8000
01FF8000
01FF4000
02FF4000
02FF4000
02FF0000
02FF0004
03FF0014
03FF0024
03FF0074
02FF41F4
01FFFFF0
00FFFFD0
007FFF80
000BF900
ENDCHAR
STARTCHAR u
ENCODING 117
SWIDTH 614 0
DWIDTH 20 0
BBX 25 18 -3 -2
BITMAP
6AAAA015555000
0BFFF06FFFF400
01BFF006FFF000
003FF0007FF000
003FE0003FE000
003FE0003FE000
003FE0003FD000
003FE0003FD000
003FD0003FC000
003FD0003FC000
003FD0007F8000
002FE0007F8000
001FF401FF4000
000FFEABFF4000
0007FFFFFF9000
0001BFFE7FFE40
000005507FA500
00000000100000
ENDCHAR
STARTCHAR v
ENCODING 118
SWIDTH 639 0
DWIDTH 20 0
BBX 28 21 -4 -3
BITMAP
00000014000000
0005AFE4000000
5AFFFF80000000
1BFFFD07EAA550
002FFD00BFFFF9
000BFE001FFF80
0007FF4007F400
0002FF800BD000
0000FFD01FC000
00007FE02F4000
00003FF47F0000
00001FF8BD0000
00000BFDFC0000
000007FFF40000
000002FFF00000
000000FFD00000
0000007FC00000
0000003F400000
0000001F000000
00000009000000
00000004000000
ENDCHAR
STARTCHAR w
ENCODING 119
SWIDTH 805 0
DWIDTH 26 0
BBX 34 19 -4 -1
BITMAP
01555AA90015500000
6FFFFF901407FFFF90
01FFFD002C00BFF900
001FFD003D002F8000
000BFF00BE007F0000
0007FF40FF40BE0000
0002FF81FF81FC0000
0001FFD2FFC2F80000
0000BFE7FFE3F00000
00007FFBFFFBE00000
00003FFFAFFFD00000
00001FFF4FFF800000
00000FFE0BFF400000
000007FD03FF000000
000003FC02FD000000
000001F400FC000000
000000F000B4000000
000000500030000000
000000000010000000
ENDCHAR
STARTCHAR x
ENCODING 120
SWIDTH 717 0
DWIDTH 23 0
BBX 29 20 -3 -2
BITMAP
0000056A40000000
016AFFE400000000
6BFFFF455555A900
005BFF42FFFFE400
0003FFD01FFE4000
0001FFF02FE00000
00007FFCBF400000
00001FFFFD000000
00000BFFE0000000
000002FFD0000000
000001FFF0000000
000007FFF8000000
00002FEFFE000000
0000BF83FF400000
001BFF01FFD00000
06FFFFD07FF40000
055AAAF91FFF9000
00000000BFFFFE40
00000007FEA54000
0000001500000000
ENDCHAR
STARTCHAR y
ENCODING 121
SWIDTH 655 0
DWIDTH 21 0
BBX 22 33 -2 -15
BITMAP
400000000000
390000000000
0FE402A95000
07FF907FFFE0
01FFF80BFFF0
00BFF401FFF0
00BFF000BFF0
00FFE000BFE0
01FFD000BFE0
02FFC000BFE0
02FFC000BFE0
03FF8000BFE0
02FFC000BFE0
01FFF400BFE0
00FFFFAFFFE0
007FFFFFFFD0
000BFFFEFFD0
00005540BFD0
00000000BFD0
00000000BFD0
00000000FFD0
00000000FFD0
00000000FFC0
00640000FFC0
01FE0001FFC0
02FF4001FF80
02FF0002FF40
02FD0007FF00
01FE001FFD00
007FE5BFF800
001FFFFFD000
0006FFFE0000
000015400000
ENDCHAR
STARTCHAR z
ENCODING 122
SWIDTH 549 0
DWIDTH 18 0
BBX 19 18 0 -1
BITMAP
15556AAAA4
7FFFFFFFF0
7FFFFFFFD0
3F955BFF40
2F001FFE00
2F003FFC00
1E00BFF400
1D02FFE000
0C07FF8040
041FFF0180
003FFD0280
00BFF80380
02FFE00B80
07FFC00FC0
1FFFFAAFC0
3FFFFFFFC0
6AAFFFFFC0
0000015580
ENDCHAR
STARTCHAR braceleft
ENCODING 123
SWIDTH 708 0
DWIDTH 23 0
BBX 17 31 3 -4
BITMAP
0015500000
003FFFFF40
003FFFF400
003FFF4000
003FF40000
003FF00000
003FF00000
003FF00000
003FF00000
003FF00000
003FF00000
003FF00000
002FF00000
002FF00000
01BFF00000
6FFFF00000
6FFFF00000
01BFF00000
002FF00000
002FF00000
002FE00000
002FE00000
001FE00000
001FE00000
001FE00000
001FE00000
001FE00000
001FF40000
001FFE4000
001FFFE000
001AAAA900
ENDCHAR
STARTCHAR bar
ENCODING 124
SWIDTH 304 0
DWIDTH 10 0
BBX 6 30 2 -3
BITMAP
6A90
BFE0
BFD0
BFD0
BFD0
BFD0
BFD0
BFD0
BFD0
BFD0
BFD0
BFD0
BFD0
BFD0
BFD0
BFD0
BFD0
BFD0
BFD0
BFD0
BFD0
BFD0
7FD0
7FD0
7FC0
7FC0
7FC0
7FC0
7FC0
1540
ENDCHAR
STARTCHAR braceright
ENCODING 125
SWIDTH 517 0
DWIDTH 17 0
BBX 18 31 0 -4
BITMAP
0001550000
7FFFFF0000
07FFFF0000
006FFF0000
0007FF0000
0003FF0000
0003FF0000
0003FF0000
0003FF0000
0003FF0000
0003FF0000
0003FF0000
0003FF0000
0003FF0000
0002FF9000
0002FFFE40
0002FFFE90
0002FF9000
0002FE0000
0002FE0000
0002FE0000
0002FE0000
0002FE0000
0002FE0000
0002FE0000
0002FE0000
0002FD0000
0002FD0000
002FFD0000
02FFFD0000
1AAAA90000
ENDCHAR
STARTCHAR asciitilde
ENCODING 126
SWIDTH 466 0
DWIDTH 15 0
BBX 15 6 0 7
BITMAP
1BE9002C
FFFFEAFC
FFFFFFFC
FFFFFFFC
F96FFFFC
D001AE90
ENDCHAR
STARTCHAR uni00A0
ENCODING 160
SWIDTH 320 0
DWIDTH 10 0
BBX 1 1 0 0
BITMAP
00
ENDCHAR
STARTCHAR exclamdown
ENCODING 161
SWIDTH 305 0
DWIDTH 10 0
BBX 10 28 0 -10
BITMAP
001500
00BFC0
01FFE0
01FFE0
00BFD0
001500
004000
00FE00
01FE00
01FE00
02FE00
02FE00
03FE00
03FE00
07FE00
07FE00
0BFD00
0FFD00
0FFD00
1FFD00
1FFD00
2FFD00
2FFD00
3FFD00
3FFC00
7FFC00
BFFC00
6AAC00
ENDCHAR
STARTCHAR cent
ENCODING 162
SWIDTH 417 0
DWIDTH 13 0
BBX 15 27 -1 -4
BITMAP
000BF400
000FF400
000BF400
000BF400
000BF000
002FFD00
01FFFF80
07F80BE0
0FE00BF4
2FD00BF4
3FC007F0
3F800040
7F800000
7F800000
7FC00004
3FC00018
2FE00034
0FF801F0
07FFEFD0
01FFFF40
002FF800
000BF000
000BF400
000BF400
000FF400
000FF400
00055000
ENDCHAR
STARTCHAR sterling
ENCODING 163
SWIDTH 658 0
DWIDTH 21 0
BBX 22 25 0 -2
BITMAP
000000000040
000000000180
0001BFE40380
000BFFFF4B40
002FFFFFFF40
00BFF41FFF00
00FFC002FF00
01FF8000BF00
01FF40003E00
ABFF95541E00
FFFFFFFD0D00
FFFFFFFC0900
FFFFEAA80500
002FD0000010
055FE5540050
FFFFFFFD0090
FFFFFFFC01D0
BFFFFFFC02C0
002FD55407C0
003FC0000BC0
00BFAAAAAFC0
01FFFFFFFFC0
03FFFFFFFFC0
06ABFFFFFF80
000000015540
ENDCHAR
STARTCHAR currency
ENCODING 164
SWIDTH 358 0
DWIDTH 11 0
BBX 12 11 0 6
BITMAP
1D00A0
7FAAF8
BFFFFD
2FFFF4
1F83F0
1F42F0
0F97F0
1FFFE0
7FFFF8
BE69FC
280060
ENDCHAR
STARTCHAR yen
ENCODING 165
SWIDTH 796 0
DWIDTH 26 0
BBX 30 21 -4 0
BITMAP
0015ABE000000000
6FFFFE0015000000
01BFFD000BFFFF90
0007FF0001BFF900
0001FFC0003F4000
00007FF000BC0000
00001FF803F00000
000007FE0FC00000
000001FFBF000000
0000007FFC000000
0000002FF4000000
00002FFFFAA00000
00002FFFFFF00000
0000155FF5500000
00001AAFFAA40000
00002FFFFFF40000
0000155FFAA00000
0000000FF4000000
0000006FF9400000
00001BFFFFF90000
0001AAAAAAAA5000
ENDCHAR
STARTCHAR brokenbar
ENCODING 166
SWIDTH 304 0
DWIDTH 10 0
BBX 6 30 2 -3
BITMAP
6A90
BFE0
BFD0
BFD0
BFD0
BFD0
BFD0
BFD0
BFD0
BFD0
BFD0
6A40
0000
0000
0000
0000
0000
6A80
BFD0
BFD0
BFD0
BFD0
7FD0
7FD0
7FC0
7FC0
7FC0
7FC0
7FC0
1540
ENDCHAR
STARTCHAR section
ENCODING 167
SWIDTH 646 0
DWIDTH 21 0
BBX 19 37 1 -9
BITMAP
006FF90050
02FFFF8090
0FFFFFF4C0
2FE006FEC0
7F80007FC0
BF80001FC0
BFC00007C0
BFE00002C0
7FFD000080
3FFFE40040
1FFFFE4000
0BFFFFF400
02FFFFFE00
0BFFFFFF80
2FF6FFFFE0
3FC01BFFF0
7F8001FFF4
BF80003FF4
BFD0001FF4
BFF8001FF0
7FFF907FE0
2FFFFFFFC0
0FFFFFFE00
02FFFFFD00
007FFFFF80
0007FFFFD0
20006FFFF0
340002FFF4
3C00007FF4
3F00002FF4
3FD0001FF4
7FF8003FF0
7FFFAAFFD0
75BFFFFF40
701BFFE400
9000000000
4000000000
ENDCHAR
STARTCHAR dieresis
ENCODING 168
SWIDTH 708 0
DWIDTH 23 0
BBX 10 5 6 26
BITMAP
040040
3F07E0
7F4BF0
7F4BF0
190290
ENDCHAR
STARTCHAR copyright
ENCODING 169
SWIDTH 700 0
DWIDTH 22 0
BBX 23 21 0 1
BITMAP
00005A940000
001BFFFF8000
01FFFFFFF400
07FF9017FE00
1FF80500BF40
2FD07FE42FC0
7F41F5BD0FE0
BF07E03E0BF0
BD0BC03E07F4
FD0FC00403F4
FD0F800003F4
FD0FC00003F4
BE0BD00207F0
7F07F40A0BF0
3F42FEBC0FD0
2FC07FE02FC0
0FF40500BF40
03FE401BFD00
00BFFFFFE400
001BFFFE4000
00005A500000
ENDCHAR
STARTCHAR ordfeminine
ENCODING 170
SWIDTH 399 0
DWIDTH 13 0
BBX 15 14 -1 12
BITMAP
00150000
02FFE400
0FFFFD00
2FC1FE00
2FD0BF00
1F80BF00
02AABF00
1FFFFF00
3FD5FF00
7F80FE00
3FEAFE00
1FFFFE00
01AAFFE0
0001A954
ENDCHAR
STARTCHAR guillemotleft
ENCODING 171
SWIDTH 424 0
DWIDTH 14 0
BBX 14 17 0 -1
BITMAP
00140140
003803C0
00BC0BD0
01F81F80
07F43F40
0FE0BF00
2FD2FD00
7FC7FC00
BF8BF800
7FC7FC00
2FD2FD00
0FE0BF00
07F43F40
01F81F80
00BC0BC0
003802C0
00140040
ENDCHAR
STARTCHAR logicalnot
ENCODING 172
SWIDTH 541 0
DWIDTH 17 0
BBX 19 16 0 2
BITMAP
4000000040
5000000080
7000000180
7400000380
7EAA955B80
7FFFFFFF80
7FFFFFFF80
7FFFFFFF80
7FFAAABF40
7400003F40
6000002F40
5000002F40
4000001F40
0000001F40
000000BFD0
000001AAF8
ENDCHAR
STARTCHAR sfthyphen
ENCODING 173
SWIDTH 530 0
DWIDTH 17 0
BBX 17 6 0 8
BITMAP
BAAA955400
FFFFFFFFC0
FFFFFFFFC0
FFFFFFFF80
FFFFFFFF80
AAA9555500
ENDCHAR
STARTCHAR registered
ENCODING 174
SWIDTH 700 0
DWIDTH 22 0
BBX 23 21 0 1
BITMAP
000015400000
000AFFFE4000
00BFFFFFE400
03FFA55BFD00
0FF90001FF40
2FE001003FC0
7F81AE2F5FE0
BF0BFFFFCBF0
BE007FEFC7F4
FD003F0543F4
FD003E0003F4
FD003E0003F4
BD002E0003F4
BE002E0007F0
7F407F900FE0
2F81FEA81FC0
1FE000007F40
07FD0006FE00
01FFEAFFF400
002FFFFF8000
0001AAA40000
ENDCHAR
STARTCHAR macron
ENCODING 175
SWIDTH 705 0
DWIDTH 23 0
BBX 9 5 8 23
BITMAP
555540
FFFFC0
FFFFC0
FFFFC0
BFFF80
ENDCHAR
STARTCHAR degree
ENCODING 176
SWIDTH 364 0
DWIDTH 12 0
BBX 9 9 1 14
BITMAP
02E400
1FFE00
3FFF80
7E0FC0
7D0BC0
7E5FC0
2FFF40
0BFE00
01A400
ENDCHAR
STARTCHAR plusminus
ENCODING 177
SWIDTH 607 0
DWIDTH 19 0
BBX 19 21 0 0
BITMAP
0001000000
0003FF4000
0003FF4000
0002FF4000
0002FF0000
7FFFFFA554
7FFFFFFFF8
7FFFFFFFF8
7FFFFFFFF8
7FFFFFEAA4
0002FF0000
0002FE0000
0002FE0000
0001FE0000
0001A90000
1555400000
3FFFFFFFA4
3FFFFFFFF4
3FFFFFFFF4
3FFFFFFFF4
2AAAA95550
ENDCHAR
STARTCHAR twosuperior
ENCODING 178
SWIDTH 440 0
DWIDTH 14 0
BBX 14 18 0 11
BITMAP
10000000
286FE400
2EFFFF00
1FFEFF80
1FD02FD0
1F401FE0
0E001FE0
0D003FD0
0C01FF80
080BFE20
04BFE4A0
07FF41D0
1FF803D0
3FE55BD0
BFFFFFD0
FFFFFFC0
ABFFFFC0
00000140
ENDCHAR
STARTCHAR threesuperior
ENCODING 179
SWIDTH 442 0
DWIDTH 14 0
BBX 14 19 0 10
BITMAP
40000000
60000000
387FE400
2FFFFE00
2FFAFF80
1FD03FD0
1F002FD0
0D002FD0
0825BFC0
003FFF40
003FFFC0
0815FFE0
0D003FE0
1F002FE0
2FD07FE0
2FFFFFC0
3EFFFF00
706FE400
50000000
ENDCHAR
STARTCHAR acute
ENCODING 180
SWIDTH 694 0
DWIDTH 22 0
BBX 7 8 9 23
BITMAP
0A40
0FE4
1FF0
2FD0
3FC0
BF40
6E00
0400
ENDCHAR
STARTCHAR mu
ENCODING 181
SWIDTH 1000 0
DWIDTH 32 0
BBX 25 25 0 -9
BITMAP
6AAAA015555000
1BFFF06FFFF000
01FFF006FFF000
003FE0007FE000
003FE0003FE000
003FE0003FD000
003FD0003FD000
003FD0007FC000
003FD0007FC000
003FD0007F8000
003FD0007F8000
003FE0007F4000
003FF401FF4000
003FFEAFFF0000
003FFFFFFF9000
003FFFFE7FFE40
003FD5507FA500
002FD000500000
002FD000000000
002FD000000000
002FD000000000
002FD000000000
002FD000000000
002FD000000000
00054000000000
ENDCHAR
STARTCHAR paragraph
ENCODING 182
SWIDTH 782 0
DWIDTH 25 0
BBX 27 22 -1 -1
BITMAP
00016AABFFFFE4
006FFFFFFFFE40
07FFFFFFFFE000
2FFE57F97F4000
7FE007F47F0000
BF8007F47F0000
BFC007F47F0000
3FE407F47F0000
1FFE57F47F0000
01FFFFFFFF0000
001AFFFFFF0000
00001BFAFF0000
000007F07F0000
000007F0BF0000
000007F0BF0000
000007F0BF0000
000007F0BF0000
000007F1FF0000
000007FFFFD000
00000BFFFFF900
0001BFFFFFFF90
006FFEAAA95550
ENDCHAR
STARTCHAR periodcentered
ENCODING 183
SWIDTH 226 0
DWIDTH 7 0
BBX 7 6 0 9
BITMAP
0A90
3FF4
BFFC
BFFC
3FF4
0680
ENDCHAR
STARTCHAR cedilla
ENCODING 184
SWIDTH 780 0
DWIDTH 25 0
BBX 8 10 9 -6
BITMAP
0B80
1F00
3F80
BFF4
5BFC
00BC
20BD
BEFC
BFF4
1F90
ENDCHAR
STARTCHAR onesuperior
ENCODING 185
SWIDTH 390 0
DWIDTH 13 0
BBX 12 17 0 11
BITMAP
000190
01AFD0
6FFFD0
06FFD0
003FD0
003FD0
003FD0
002FD0
002FD0
002FD0
002FD0
002FD0
002FD0
002FC0
007FE0
02FFF8
0AAAAA
ENDCHAR
STARTCHAR ordmasculine
ENCODING 186
SWIDTH 449 0
DWIDTH 14 0
BBX 16 12 -1 13
BITMAP
00155400
02FFFF80
1FFFBFF4
3FE00BFC
7F8002FD
BF4001FE
BF4001FE
7F8002FD
3FE00BFC
0FFEBFF0
02FFFF80
00165400
ENDCHAR
STARTCHAR guillemotright
ENCODING 187
SWIDTH 415 0
DWIDTH 13 0
BBX 14 17 0 -1
BITMAP
20020000
74038000
BD07D000
7F03F000
2F82F800
1FD1FE00
0FF0BF40
07F87FC0
03FC3FD0
07F87FC0
0FF0BF40
1FD1FD00
2F82F800
7F03F000
BD07D000
74038000
20010000
ENDCHAR
STARTCHAR onequarter
ENCODING 188
SWIDTH 918 0
DWIDTH 29 0
BBX 29 32 0 -4
BITMAP
0001900000074000
01AFD000000FE000
6FFFD000001FF400
06FFD000003FE000
003FD00000BFD000
003FD00001FF8000
003FD00002FF0000
002FD00007FD0000
002FD0000FF80000
002FD0002FF00000
002FD0007FD00000
002FD000BF800000
002FD001FF401000
002FC003FE00A000
007FE00BFC01E000
02FFF80FF407E000
0AAAAA2FE00FE000
0000007FC03FE000
000000FF40BFE000
000001FE02FFE000
000003FD07FFE200
00000BF81FEFD300
00001FF07F9FDB00
00002FD0FF6FEF00
00007F82FFFFFF00
0000FF0BFFFFFF00
0002FD00001FDB00
0007F800001FD300
000BF400002FE100
001FE00006FFFD00
002FC0006AAAAA40
000B400000000000
ENDCHAR
STARTCHAR onehalf
ENCODING 189
SWIDTH 1007 0
DWIDTH 32 0
BBX 32 33 0 -5
BITMAP
0001900000074000
01AFD000000FE000
6FFFD000001FF400
06FFD000003FE000
003FD00000BFD000
003FD00001FF8000
003FD00002FF0000
002FD00007FD0000
002FD0000FF80000
002FD0002FF00000
002FD0007FD00000
002FD000BF800000
002FD001FF400000
002FC003FE000000
007FE00BFC000000
02FFF80FF5000000
0AAAAA2FE181BA40
0000007FC1EFFFE0
000000FF41FFFFFC
000001FE00FE46FE
000003FD00F801FE
00000BF800F001FE
00001FF000E002FE
00002FD000900BFD
00007F8000807FF6
0000FF000046FF86
0002FD00002FF90E
0007F80000BFD02E
000BF40002FF007E
001FE00007FFFFFD
002FC0000BFFFFFD
000B40000BFFFFFD
0000000000015554
ENDCHAR
STARTCHAR threequarters
ENCODING 190
SWIDTH 936 0
DWIDTH 30 0
BBX 30 33 0 -4
BITMAP
4000000000000000
6000000000028000
387FE4000007F400
2FFFFE00000FFC00
2FFAFF80001FF400
1FD03FD0003FE000
1F002FD000BFC000
0D002FD001FF4000
0825BFC002FE0000
003FFF4007FD0000
003FFFC00FF80000
0815FFE02FF00000
0D003FE07FD00000
1F002FE0BF801400
2FD07FE1FF003400
2FFFFFC3FD00B400
3EFFFF0BF802F400
706FE40FF407F400
5000002FE01FF400
0000007FC07FF000
000000FF40FFF040
000001FE02FFF080
000003FC0BFFF280
00000BF42FCBF780
00001FF07F9FFB80
00002FD1FFFFFF80
00007F83FFFFFF80
0000FF00000BF380
0002FD00000BF140
0007F800001BF440
000BF00001FFFE00
001FD0001AAAAA90
0006C00000000000
ENDCHAR
STARTCHAR questiondown
ENCODING 191
SWIDTH 568 0
DWIDTH 18 0
BBX 20 29 -1 -10
BITMAP
0000000500
000000BFE0
000000FFF8
000000FFFC
000000BFF8
0000001B90
0000000000
000000E400
000002FF00
000003FE00
000007FE00
00005BFD00
006FFFFD00
02FFFFFD00
0BFFEABC00
1FFE400400
3FF8000000
3FF4000000
7FF0000000
7FF0000001
3FF0000008
2FF800001C
1FFD000078
0BFF9001F8
01FFFEAFF4
006FFFFFF0
0001AAAAF0
00000000E0
0000000050
ENDCHAR
STARTCHAR Agrave
ENCODING 192
SWIDTH 788 0
DWIDTH 25 0
BBX 36 39 -5 -7
BITMAP
000000005000000000
00000006E000000000
0000002FF000000000
0000001FF400000000
0000000BF800000000
00000007FC00000000
00000002FD00000000
00000000F800000000
000000004000000000
000000000000000000
000155500000000000
00006FFFFD00000000
000006FFFE00000000
0000006FFF40000000
00000007FF80000000
00000002FFD0000000
00000007FFE0000000
0000000FFFF4000000
0000001FBFF8000000
0000003F2FFD000000
0000007E0FFE000000
000000FC0BFF400000
000001F403FF800000
000003F002FFD00000
00000BFEAAFFE00000
00000FFFFFFFF40000
00002FFFFFFFF80000
00003F55543FFD0000
0000BD00001FFE0000
0000F800000FFF4000
0007F400000BFF8000
01BFFE000003FFC000
1BFFFF900002FFE000
56AAFFF80001FFF900
000000150000FFFFF9
000000000002FFFFF9
000000000007FFF900
00000000001FF90000
000000000069000000
ENDCHAR
STARTCHAR Aacute
ENCODING 193
SWIDTH 788 0
DWIDTH 25 0
BBX 36 39 -5 -7
BITMAP
000000003900000000
000000007F80000000
00000000BFC0000000
00000000FF40000000
00000001FE00000000
00000002FD00000000
00000001B800000000
000000001000000000
000000000000000000
000000000000000000
000155500000000000
00006FFFFD00000000
000006FFFE00000000
0000006FFF40000000
00000007FF80000000
00000002FFD0000000
00000007FFE0000000
0000000FFFF4000000
0000001FBFF8000000
0000003F2FFD000000
0000007E0FFE000000
000000FC0BFF400000
000001F403FF800000
000003F002FFD00000
00000BFEAAFFE00000
00000FFFFFFFF40000
00002FFFFFFFF80000
00003F55543FFD0000
0000BD00001FFE0000
0000F800000FFF4000
0007F400000BFF8000
01BFFE000003FFC000
1BFFFF900002FFE000
56AAFFF80001FFF900
000000150000FFFFF9
000000000002FFFFF9
000000000007FFF900
00000000001FF90000
000000000069000000
ENDCHAR
STARTCHAR Acircumflex
ENCODING 194
SWIDTH 788 0
DWIDTH 25 0
BBX 36 38 -5 -7
BITMAP
000000001400000000
00000000BC00000000
00000001FE00000000
00000007FF80000000
0000000FFFD0000000
0000002FEFF4000000
000000BF42FC000000
000000780078000000
000000000000000000
000155500000000000
00006FFFFD00000000
000006FFFE00000000
0000006FFF40000000
00000007FF80000000
00000002FFD0000000
00000007FFE0000000
0000000FFFF4000000
0000001FBFF8000000
0000003F2FFD000000
0000007E0FFE000000
000000FC0BFF400000
000001F403FF800000
000003F002FFD00000
00000BFEAAFFE00000
00000FFFFFFFF40000
00002FFFFFFFF80000
00003F55543FFD0000
0000BD00001FFE0000
0000F800000FFF4000
0007F400000BFF8000
01BFFE000003FFC000
1BFFFF900002FFE000
56AAFFF80001FFF900
000000150000FFFFF9
000000000002FFFFF9
000000000007FFF900
00000000001FF90000
000000000069000000
ENDCHAR
STARTCHAR Atilde
ENCODING 195
SWIDTH 788 0
DWIDTH 25 0
BBX 36 36 -5 -7
BITMAP
0000001BE418000000
0000003FFEF8000000
0000003FFFF8000000
0000003EFFF8000000
000000341BE4000000
000000000000000000
000000000000000000
000155500000000000
00006FFFFD00000000
000006FFFE00000000
0000006FFF40000000
00000007FF80000000
00000002FFD0000000
00000007FFE0000000
0000000FFFF4000000
0000001FBFF8000000
0000003F2FFD000000
0000007E0FFE000000
000000FC0BFF400000
000001F403FF800000
000003F002FFD00000
00000BFEAAFFE00000
00000FFFFFFFF40000
00002FFFFFFFF80000
00003F55543FFD0000
0000BD00001FFE0000
0000F800000FFF4000
0007F400000BFF8000
01BFFE000003FFC000
1BFFFF900002FFE000
56AAFFF80001FFF900
000000150000FFFFF9
000000000002FFFFF9
000000000007FFF900
00000000001FF90000
000000000069000000
ENDCHAR
STARTCHAR Adieresis
ENCODING 196
SWIDTH 788 0
DWIDTH 25 0
BBX 36 35 -5 -7
BITMAP
000000040040000000
0000002F43F0000000
0000003F87F4000000
0000003F87F4000000
000000190190000000
000000000000000000
000155500000000000
00006FFFFD00000000
000006FFFE00000000
0000006FFF40000000
00000007FF80000000
00000002FFD0000000
00000007FFE0000000
0000000FFFF4000000
0000001FBFF8000000
0000003F2FFD000000
0000007E0FFE000000
000000FC0BFF400000
000001F403FF800000
000003F002FFD00000
00000BFEAAFFE00000
00000FFFFFFFF40000
00002FFFFFFFF80000
00003F55543FFD0000
0000BD00001FFE0000
0000F800000FFF4000
0007F400000BFF8000
01BFFE000003FFC000
1BFFFF900002FFE000
56AAFFF80001FFF900
000000150000FFFFF9
000000000002FFFFF9
000000000007FFF900
00000000001FF90000
000000000069000000
ENDCHAR
STARTCHAR Aring
ENCODING 197
SWIDTH 788 0
DWIDTH 25 0
BBX 36 34 -5 -7
BITMAP
00000001BE00000000
00000003FF80000000
00000007C7C0000000
0000000B83D0000000
00000007EBC0000000
00015542FF40000000
00006FFFFD00000000
000006FFFE00000000
0000006FFF40000000
00000007FF80000000
00000002FFD0000000
00000007FFE0000000
0000000FFFF4000000
0000001FBFF8000000
0000003F2FFD000000
0000007E0FFE000000
000000FC0BFF400000
000001F403FF800000
000003F002FFD00000
00000BFEAAFFE00000
00000FFFFFFFF40000
00002FFFFFFFF80000
00003F55543FFD0000
0000BD00001FFE0000
0000F800000FFF4000
0007F400000BFF8000
01BFFE000003FFC000
1BFFFF900002FFE000
56AAFFF80001FFF900
000000150000FFFFF9
000000000002FFFFF9
000000000007FFF900
00000000001FF90000
000000000069000000
ENDCHAR
STARTCHAR AE
ENCODING 198
SWIDTH 1019 0
DWIDTH 33 0
BBX 40 25 -8 -2
BITMAP
0000000001555AAABFFD
000002FFFFFFFFFFFFFD
000000BFFFFFFFFFFFFD
0000001FFFFFFE5501FD
00000002FFFFFD0000FD
000000003FEFFD00007C
000000007F6FFD00803C
00000000FE2FFD00C02C
00000002FC2FFC02C00C
00000007F41FFC03C008
0000000BE01FFC0BC004
0000001FC01FFD5F8000
0000003F401FFFFF8004
000000BE001FFFFF8004
000001FD001FFFFF8014
000003FFFFFFFC1F8024
00000BFFFFFFFC0B8038
00001FFFFFFFFC038078
00002F40001FFC0180B8
00007E00001FFC0040F8
0000FC00001FFC0001F8
001BF80001BFFFFFFFF8
02FFFE406FFFFFFFFFF8
6FFFFFD6AAAAAAAAAAA4
0556AAF8000000000000
ENDCHAR
STARTCHAR Ccedilla
ENCODING 199
SWIDTH 766 0
DWIDTH 25 0
BBX 24 35 0 -11
BITMAP
000000000001
000000000003
00005AFE400A
0006FFFFF82E
002FFFFFFF7D
00FFFFA6FFFD
03FFF4001FFD
0BFFD00003FC
1FFF400000FC
2FFE00000078
3FFC00000028
7FFC00000014
7FF800000000
7FF800000000
7FF800000000
7FF800000000
3FFC00000010
2FFD00000020
1FFE00000034
0FFF40000078
07FFD00001F8
02FFF80007FC
00BFFFA6BFFC
001FFFFFFF9D
0002FFFFFD06
00001BEA5001
00000BC00000
00001F900000
00003FF80000
00006AFD0000
0000003E0000
0000042F0000
00003EBE0000
00007FFD0000
00001BE40000
ENDCHAR
STARTCHAR Egrave
ENCODING 200
SWIDTH 781 0
DWIDTH 25 0
BBX 26 34 -2 -1
BITMAP
00000004000000
000000BD000000
000003FE000000
000002FF000000
000000FF400000
000000BF800000
0000003FC00000
0000001E400000
00000004000000
00000000000000
000000156AAFE0
55AAFFFFFFFFE0
6FFFFFFFFFFFE0
01BFFFD5501FE0
0007FF80000BE0
0003FF800007D0
0003FF800803D0
0003FF801801D0
0003FF803800D0
0003FF80780050
0003FF80F80010
0003FF96F80000
0003FFFFF80040
0003FFFFF80080
0002FFFFF80080
0002FF42F80180
0002FF40F80280
0002FF40780780
0002FF40280B80
0002FF40040F80
0002FF40001F80
002FFFFFFFFF80
06FFFFFFFFFFC0
6AAAAAAAAAAA40
ENDCHAR
STARTCHAR Eacute
ENCODING 201
SWIDTH 781 0
DWIDTH 25 0
BBX 26 33 -2 -1
BITMAP
00000007800000
0000000BF80000
0000000FF80000
0000001FF00000
0000002FD00000
0000003FC00000
0000002F400000
00000001000000
00000000000000
000000156AAFE0
55AAFFFFFFFFE0
6FFFFFFFFFFFE0
01BFFFD5501FE0
0007FF80000BE0
0003FF800007D0
0003FF800803D0
0003FF801801D0
0003FF803800D0
0003FF80780050
0003FF80F80010
0003FF96F80000
0003FFFFF80040
0003FFFFF80080
0002FFFFF80080
0002FF42F80180
0002FF40F80280
0002FF40780780
0002FF40280B80
0002FF40040F80
0002FF40001F80
002FFFFFFFFF80
06FFFFFFFFFFC0
6AAAAAAAAAAA40
ENDCHAR
STARTCHAR Ecircumflex
ENCODING 202
SWIDTH 781 0
DWIDTH 25 0
BBX 26 34 -2 -1
BITMAP
00000014000000
0000007D000000
000000FF400000
000002FFC00000
00000BFFE00000
00001FFBF80000
00007F81FD0000
000028002D0000
00000000000000
00000000000000
000000156AAFE0
55AAFFFFFFFFE0
6FFFFFFFFFFFE0
01BFFFD5501FE0
0007FF80000BE0
0003FF800007D0
0003FF800803D0
0003FF801801D0
0003FF803800D0
0003FF80780050
0003FF80F80010
0003FF96F80000
0003FFFFF80040
0003FFFFF80080
0002FFFFF80080
0002FF42F80180
0002FF40F80280
0002FF40780780
0002FF40280B80
0002FF40040F80
0002FF40001F80
002FFFFFFFFF80
06FFFFFFFFFFC0
6AAAAAAAAAAA40
ENDCHAR
STARTCHAR Edieresis
ENCODING 203
SWIDTH 781 0
DWIDTH 25 0
BBX 26 30 -2 -1
BITMAP
00000100100000
00000BD0FC0000
00000FE1FD0000
00000FE1FD0000
00000640640000
00000000000000
000000156AAFE0
55AAFFFFFFFFE0
6FFFFFFFFFFFE0
01BFFFD5501FE0
0007FF80000BE0
0003FF800007D0
0003FF800803D0
0003FF801801D0
0003FF803800D0
0003FF80780050
0003FF80F80010
0003FF96F80000
0003FFFFF80040
0003FFFFF80080
0002FFFFF80080
0002FF42F80180
0002FF40F80280
0002FF40780780
0002FF40280B80
0002FF40040F80
0002FF40001F80
002FFFFFFFFF80
06FFFFFFFFFFC0
6AAAAAAAAAAA40
ENDCHAR
STARTCHAR Igrave
ENCODING 204
SWIDTH 445 0
DWIDTH 14 0
BBX 19 36 -2 -3
BITMAP
0000500000
0006F00000
002FF40000
000FF80000
000BFC0000
0003FD0000
0001FE0000
0000F90000
0000400000
0000000000
0000000000
BFFFFFFFE4
06FFFFFE40
006FFFD000
0007FF4000
0007FF4000
0007FF4000
0007FF4000
0007FF4000
0003FF4000
0003FF4000
0003FF4000
0003FF4000
0003FF4000
0003FF0000
0003FF0000
0003FF0000
0003FF0000
0002FF0000
0002FF0000
0002FF0000
0002FF0000
0002FF0000
001BFF9000
01BFFFFE00
1AAAAAAAA0
ENDCHAR
STARTCHAR Iacute
ENCODING 205
SWIDTH 445 0
DWIDTH 14 0
BBX 19 35 -2 -3
BITMAP
00001E0000
00002FE000
00003FD000
00007FC000
0000BF4000
0000FE0000
0000BD0000
0000040000
0000000000
0000000000
BFFFFFFFE4
06FFFFFE40
006FFFD000
0007FF4000
0007FF4000
0007FF4000
0007FF4000
0007FF4000
0003FF4000
0003FF4000
0003FF4000
0003FF4000
0003FF4000
0003FF0000
0003FF0000
0003FF0000
0003FF0000
0002FF0000
0002FF0000
0002FF0000
0002FF0000
0002FF0000
001BFF9000
01BFFFFE00
1AAAAAAAA0
ENDCHAR
STARTCHAR Icircumflex
ENCODING 206
SWIDTH 445 0
DWIDTH 14 0
BBX 19 36 -2 -3
BITMAP
0000100000
0000BC0000
0001FE0000
0007FF4000
000FFFD000
002FEFF000
00BE42F800
0074007800
0000000000
0000000000
0000000000
BFFFFFFFE4
06FFFFFE40
006FFFD000
0007FF4000
0007FF4000
0007FF4000
0007FF4000
0007FF4000
0003FF4000
0003FF4000
0003FF4000
0003FF4000
0003FF4000
0003FF0000
0003FF0000
0003FF0000
0003FF0000
0002FF0000
0002FF0000
0002FF0000
0002FF0000
0002FF0000
001BFF9000
01BFFFFE00
1AAAAAAAA0
ENDCHAR
STARTCHAR Idieresis
ENCODING 207
SWIDTH 445 0
DWIDTH 14 0
BBX 19 32 -2 -3
BITMAP
0004004000
002F47E000
007F8BF400
003F47F000
0019019000
0000000000
0000000000
BFFFFFFFE4
06FFFFFE40
006FFFD000
0007FF4000
0007FF4000
0007FF4000
0007FF4000
0007FF4000
0003FF4000
0003FF4000
0003FF4000
0003FF4000
0003FF4000
0003FF0000
0003FF0000
0003FF0000
0003FF0000
0002FF0000
0002FF0000
0002FF0000
0002FF0000
0002FF0000
001BFF9000
01BFFFFE00
1AAAAAAAA0
ENDCHAR
STARTCHAR Eth
ENCODING 208
SWIDTH 1000 0
DWIDTH 32 0
BBX 31 23 0 -1
BITMAP
5555555555000000
0BFFFFFFFFF90000
007FFFFFFFFFE000
0006FFFFAAFFFD00
00007FFD001FFF40
00003FFD0002FFC0
00003FFD0000FFE0
00002FFD0000BFF0
00002FFC00007FF4
00002FFC00003FF8
02FFFFFEAA403FF8
02FFFFFFFF403FF8
03FFFFFFFF003FF8
02FAAFFEAA003FF8
00001FFC00003FF4
00001FF800007FF0
00000FF80000BFE0
00000FF80001FFC0
00000FF8000BFF40
00001FFAAABFFD00
0001BFFFFFFFF400
001BFFFFFFFE4000
01BEAA9555000000
ENDCHAR
STARTCHAR Ntilde
ENCODING 209
SWIDTH 840 0
DWIDTH 27 0
BBX 33 32 -3 -1
BITMAP
0000007E4090000000
000001FFFBD0000000
000001FFFFD0000000
000001FBFFD0000000
000001806F80000000
000000000000000000
000000000000000000
000000000000055540
2AAAAA91BFFFFFFE00
06FFFFF407FFFFE000
006FFFFC006FFE0000
0002FFFE0002F80000
0000FFFF8002F40000
0000FFFFD002F40000
0000FFFFF402F40000
0000FEFFFC02F40000
0000FCBFFE02F40000
0000FC3FFF82F40000
0000FC0FFFD2F40000
0000FC07FFF6F40000
0000FC01FFFEF40000
0000FC00BFFFF40000
0000FD002FFFF40000
0000FD000BFFF40000
0000FD0003FFF40000
0000FD0000FFF40000
0000FD00007FF40000
0002FE40001FF40000
006FFFF9000BF40000
06FFFFFFE402F00000
6AAAAAAAAE40B00000
000000000000300000
ENDCHAR
STARTCHAR Ograve
ENCODING 210
SWIDTH 808 0
DWIDTH 26 0
BBX 26 32 0 -1
BITMAP
00000014000000
000001F8000000
00000BFC000000
000007FD000000
000003FE000000
000001FF000000
000000BF400000
0000007D000000
00000010000000
00000000000000
00000000000000
000016AA400000
0006FFFFF90000
007FFFFFFFD000
02FFFE56FFF400
07FFE0007FFD00
1FFF40001FFF00
2FFE00000BFF40
3FFC000007FF80
7FF8000003FFC0
7FF8000002FFD0
7FF8000002FFD0
7FF8000002FFC0
3FFC000003FFC0
3FFD000007FF80
1FFE00000BFF40
0BFF40002FFE00
03FFE001BFF800
00BFFEAFFFE000
001FFFFFFF4000
0001BFFFE40000
00000554000000
ENDCHAR
STARTCHAR Oacute
ENCODING 211
SWIDTH 808 0
DWIDTH 26 0
BBX 26 30 0 -1
BITMAP
00000039000000
0000007F800000
000000BFC00000
000000FF400000
000001FE000000
000002FD000000
000001B8000000
00000010000000
00000000000000
000016AA400000
0006FFFFF90000
007FFFFFFFD000
02FFFE56FFF400
07FFE0007FFD00
1FFF40001FFF00
2FFE00000BFF40
3FFC000007FF80
7FF8000003FFC0
7FF8000002FFD0
7FF8000002FFD0
7FF8000002FFC0
3FFC000003FFC0
3FFD000007FF80
1FFE00000BFF40
0BFF40002FFE00
03FFE001BFF800
00BFFEAFFFE000
001FFFFFFF4000
0001BFFFE40000
00000554000000
ENDCHAR
STARTCHAR Ocircumflex
ENCODING 212
SWIDTH 808 0
DWIDTH 26 0
BBX 26 31 0 -1
BITMAP
00000050000000
000001F4000000
000003FC000000
00000BFF000000
00002FFF800000
00007FAFD00000
0001FD07F40000
0000A000B00000
00000000000000
00000000000000
000016AA400000
0006FFFFF90000
007FFFFFFFD000
02FFFE56FFF400
07FFE0007FFD00
1FFF40001FFF00
2FFE00000BFF40
3FFC000007FF80
7FF8000003FFC0
7FF8000002FFD0
7FF8000002FFD0
7FF8000002FFC0
3FFC000003FFC0
3FFD000007FF80
1FFE00000BFF40
0BFF40002FFE00
03FFE001BFF800
00BFFEAFFFE000
001FFFFFFF4000
0001BFFFE40000
00000554000000
ENDCHAR
STARTCHAR Otilde
ENCODING 213
SWIDTH 808 0
DWIDTH 26 0
BBX 26 29 0 -1
BITMAP
00001F90240000
00007FFEF40000
00007FFFF40000
00007EFFF40000
0000601BE00000
00000000000000
00000000000000
00000000000000
000016AA400000
0006FFFFF90000
007FFFFFFFD000
02FFFE56FFF400
07FFE0007FFD00
1FFF40001FFF00
2FFE00000BFF40
3FFC000007FF80
7FF8000003FFC0
7FF8000002FFD0
7FF8000002FFD0
7FF8000002FFC0
3FFC000003FFC0
3FFD000007FF80
1FFE00000BFF40
0BFF40002FFE00
03FFE001BFF800
00BFFEAFFFE000
001FFFFFFF4000
0001BFFFE40000
00000554000000
ENDCHAR
STARTCHAR Odieresis
ENCODING 214
SWIDTH 808 0
DWIDTH 26 0
BBX 26 28 0 -1
BITMAP
00000401000000
00007E0BD00000
0000BF0FE00000
0000BE0FE00000
00002806400000
00000000000000
00000000000000
000016AA400000
0006FFFFF90000
007FFFFFFFD000
02FFFE56FFF400
07FFE0007FFD00
1FFF40001FFF00
2FFE00000BFF40
3FFC000007FF80
7FF8000003FFC0
7FF8000002FFD0
7FF8000002FFD0
7FF8000002FFC0
3FFC000003FFC0
3FFD000007FF80
1FFE00000BFF40
0BFF40002FFE00
03FFE001BFF800
00BFFEAFFFE000
001FFFFFFF4000
0001BFFFE40000
00000554000000
ENDCHAR
STARTCHAR multiply
ENCODING 215
SWIDTH 556 0
DWIDTH 18 0
BBX 18 18 0 2
BITMAP
0040000000
02D0003800
0BF400FE00
3FFD03FF40
7FFF0BFFD0
1FFFEFFF80
07FFFFFD00
01FFFFF400
007FFFD000
002FFF8000
00BFFFE000
02FFFFF400
0BFFAFFD00
1FFE0BFF40
7FF802FFC0
2FE000BF40
0B80002D00
0100000400
ENDCHAR
STARTCHAR Oslash
ENCODING 216
SWIDTH 808 0
DWIDTH 26 0
BBX 26 27 0 -4
BITMAP
000000001D0000
000000002F9000
000000007FF400
000016AAFFE000
0006FFFFFFD000
007FFFFFFFD000
02FFFE5BFFF400
07FFE00FFFFD00
1FFF402FFFFF00
2FFE007FFBFF40
3FFC00BFD3FFC0
7FF801FF83FFC0
7FF802FF02FFD0
7FF807FD02FFD0
7FF80FFC02FFC0
3FFC1FF403FFC0
2FFD3FE007FF80
1FFEBFC00BFF40
0BFFFF402FFE00
03FFFE01BFF800
00BFFFAFFFE000
002FFFFFFF4000
001FFFFFE40000
003FD554000000
007F8000000000
006F0000000000
00050000000000
ENDCHAR
STARTCHAR Ugrave
ENCODING 217
SWIDTH 725 0
DWIDTH 23 0
BBX 28 32 -2 -1
BITMAP
00000004000000
000001BC000000
000007FD000000
000003FE000000
000001FF000000
000000FF400000
0000007F800000
0000002E400000
00000000000000
00000000000000
55400001BFFFF9
1FFFFAA01BFFD0
01FFFF4001FE00
007FF80000FD00
007FF40000FD00
007FF40000FD00
007FF40000FD00
007FF40000FD00
007FF40000FD00
00BFF40000BD00
00BFF40000BC00
00BFF40000BC00
00BFF40000BC00
00BFF40000BC00
007FF40000BC00
007FF80000F800
003FFD0002F400
002FFF0007F000
000FFFE56FD000
0007FFFFFF8000
0000BFFFFD0000
000006AA900000
ENDCHAR
STARTCHAR Uacute
ENCODING 218
SWIDTH 725 0
DWIDTH 23 0
BBX 28 32 -2 -1
BITMAP
0000001D000000
0000003FD00000
0000007FD00000
000000BF800000
000000FF400000
000001FE000000
000000BC000000
00000004000000
00000000000000
00000000000000
55400001BFFFF9
1FFFFAA01BFFD0
01FFFF4001FE00
007FF80000FD00
007FF40000FD00
007FF40000FD00
007FF40000FD00
007FF40000FD00
007FF40000FD00
00BFF40000BD00
00BFF40000BC00
00BFF40000BC00
00BFF40000BC00
00BFF40000BC00
007FF40000BC00
007FF80000F800
003FFD0002F400
002FFF0007F000
000FFFE56FD000
0007FFFFFF8000
0000BFFFFD0000
000006AA900000
ENDCHAR
STARTCHAR Ucircumflex
ENCODING 219
SWIDTH 725 0
DWIDTH 23 0
BBX 28 32 -2 -1
BITMAP
00000014000000
0000007D000000
000000FF400000
000002FFC00000
00000BFFE00000
00001FFBF80000
00007F81FD0000
000028002D0000
00000000000000
00000000000000
55400001BFFFF9
1FFFFAA01BFFD0
01FFFF4001FE00
007FF80000FD00
007FF40000FD00
007FF40000FD00
007FF40000FD00
007FF40000FD00
007FF40000FD00
00BFF40000BD00
00BFF40000BC00
00BFF40000BC00
00BFF40000BC00
00BFF40000BC00
007FF40000BC00
007FF80000F800
003FFD0002F400
002FFF0007F000
000FFFE56FD000
0007FFFFFF8000
0000BFFFFD0000
000006AA900000
ENDCHAR
STARTCHAR Udieresis
ENCODING 220
SWIDTH 725 0
DWIDTH 23 0
BBX 28 29 -2 -1
BITMAP
00000100100000
00000BD0FC0000
00000FE1FD0000
00000FE1FD0000
00000640640000
00000000000000
00000000000000
55400001BFFFF9
1FFFFAA01BFFD0
01FFFF4001FE00
007FF80000FD00
007FF40000FD00
007FF40000FD00
007FF40000FD00
007FF40000FD00
007FF40000FD00
00BFF40000BD00
00BFF40000BC00
00BFF40000BC00
00BFF40000BC00
00BFF40000BC00
007FF40000BC00
007FF80000F800
003FFD0002F400
002FFF0007F000
000FFFE56FD000
0007FFFFFF8000
0000BFFFFD0000
000006AA900000
ENDCHAR
STARTCHAR Yacute
ENCODING 221
SWIDTH 848 0
DWIDTH 27 0
BBX 33 33 -4 -3
BITMAP
000000000290000000
0000000003FD000000
0000000007FC000000
000000000BF8000000
000000000FF0000000
000000001FD0000000
000000001BC0000000
000000000040000000
000000000000000000
05556AAA4000000000
6FFFFFF90000000000
01BFFFE000AAAA5540
0006FFF0001FFFFE00
0000BFF80002FF9000
00002FFE0001F90000
00000BFF4007E00000
000002FFD01F800000
000000FFF07E000000
0000007FFDFC000000
0000001FFFF0000000
00000007FFD0000000
00000001FF40000000
00000001FF40000000
00000001FF40000000
00000001FF80000000
00000001FF80000000
00000001FF80000000
00000001FF80000000
00000001FFC0000000
00000002FFE0000000
0000002FFFFE400000
000006FFFFFFF90000
000005555000000000
ENDCHAR
STARTCHAR Thorn
ENCODING 222
SWIDTH 745 0
DWIDTH 24 0
BBX 26 22 -2 -1
BITMAP
55555540000000
2FFFFFFF900000
01FFFFF8000000
001FFF40000000
0007FE40000000
0007FFFFE94000
0007FFFFFFF900
0007FFAAFFFF80
0007FE0005FFE0
0007FE00002FF0
0007FE00001FF0
0007FE00002FF0
0007FE0001BFD0
0007FF55AFFE40
0007FFFFFFE400
0007FFFFE50000
0007FF90000000
0007FF40000000
0007FF40000000
007FFFE4000000
06FFFFFF800000
6FFFFFEAA40000
ENDCHAR
STARTCHAR germandbls
ENCODING 223
SWIDTH 986 0
DWIDTH 32 0
BBX 34 43 -2 -13
BITMAP
0000001AA400000000
000001FFFF40000000
00000BFFFFE0000000
00002FF95BFC000000
00007FD002FE000000
0000FF4000BF400000
0001FF00007F800000
0002FE00003FC00000
0003FD00003FC00000
0003FD00003FD00000
0003FD00003FD00000
0007FD00003FC00000
0007FE0000BF800000
0007FE0001FF400000
0BFFFE0002FE000000
0BFFFF0007FD000000
06ABFF000FF8000000
0002FF002FF4000000
0002FF403FF0000000
0001FF403FE0000000
0001FF803FF0000000
0001FF803FF4000000
0000FF802FFE000000
0000FFC01FFFE40000
0000BFC007FFFF8000
0000BFC001FFFFF800
0000BFD0006FFFFF40
00007FD01806FFFFD0
00007FD01D002FFFE0
00007FE01F4001FFE0
00003FE01FD0007FE0
00003FE01FF9007FD0
00003FF02FFFEBFF80
00002FF02EBFFFFE00
1A002FF02806FF9000
7FC02FF02000000000
BFD02FE01000000000
BFC03FD00000000000
7F807FC00000000000
2FD1FF400000000000
0FFFFE000000000000
02FFF8000000000000
006A40000000000000
ENDCHAR
STARTCHAR agrave
ENCODING 224
SWIDTH 572 0
DWIDTH 18 0
BBX 20 29 0 -1
BITMAP
0000004000
00001BC000
00007FD000
00003FE000
00001FF000
00000FF400
000007F800
000002E400
0000000000
0000000000
0006AA4000
00BFFFF400
03FFAFFD00
0FF402FF00
1FF401FF40
1FF800FF80
1FF400FF80
0BE000BF80
005655FF80
07FFFFFF80
1FFEABFF80
3FF001FF40
7FE002FF40
7FE002FF40
3FF957FF00
1FFFFFFF00
01BFFFFF80
000007FFF9
000006AA55
ENDCHAR
STARTCHAR aacute
ENCODING 225
SWIDTH 572 0
DWIDTH 18 0
BBX 20 28 0 -1
BITMAP
0000074000
00000BF400
00000FF400
00001FE000
00002FD000
00003F8000
00002F4000
0000010000
0000000000
0006AA4000
00BFFFF400
03FFAFFD00
0FF402FF00
1FF401FF40
1FF800FF80
1FF400FF80
0BE000BF80
005655FF80
07FFFFFF80
1FFEABFF80
3FF001FF40
7FE002FF40
7FE002FF40
3FF957FF00
1FFFFFFF00
01BFFFFF80
000007FFF9
000006AA55
ENDCHAR
STARTCHAR acircumflex
ENCODING 226
SWIDTH 572 0
DWIDTH 18 0
BBX 20 29 0 -1
BITMAP
0000080000
00002E0000
0000BF8000
0001FFD000
0007FFF400
000FFBFC00
002F80BE00
002D001D00
0000000000
0000000000
0006AA4000
00BFFFF400
03FFAFFD00
0FF402FF00
1FF401FF40
1FF800FF80
1FF400FF80
0BE000BF80
005655FF80
07FFFFFF80
1FFEABFF80
3FF001FF40
7FE002FF40
7FE002FF40
3FF957FF00
1FFFFFFF00
01BFFFFF80
000007FFF9
000006AA55
ENDCHAR
STARTCHAR atilde
ENCODING 227
SWIDTH 572 0
DWIDTH 18 0
BBX 20 26 0 -1
BITMAP
0006E80A00
000FFFBE00
000FFFFE00
000FBFFE00
000806F800
0000000000
0000000000
0006AA4000
00BFFFF400
03FFAFFD00
0FF402FF00
1FF401FF40
1FF800FF80
1FF400FF80
0BE000BF80
005655FF80
07FFFFFF80
1FFEABFF80
3FF001FF40
7FE002FF40
7FE002FF40
3FF957FF00
1FFFFFFF00
01BFFFFF80
000007FFF9
000006AA55
ENDCHAR
STARTCHAR adieresis
ENCODING 228
SWIDTH 572 0
DWIDTH 18 0
BBX 20 26 0 -1
BITMAP
0000004000
002F42F400
003FC7F800
002F83F400
000A019000
0000000000
0000000000
0006AA4000
00BFFFF400
03FFAFFD00
0FF402FF00
1FF401FF40
1FF800FF80
1FF400FF80
0BE000BF80
005655FF80
07FFFFFF80
1FFEABFF80
3FF001FF40
7FE002FF40
7FE002FF40
3FF957FF00
1FFFFFFF00
01BFFFFF80
000007FFF9
000006AA55
ENDCHAR
STARTCHAR aring
ENCODING 229
SWIDTH 572 0
DWIDTH 18 0
BBX 20 25 0 -1
BITMAP
00002E4000
0000FFD000
0002F6E000
0002D1F000
0002F6E000
0000FFD000
0006BF4000
00BFFFF400
03FFAFFD00
0FF402FF00
1FF401FF40
1FF800FF80
1FF400FF80
0BE000BF80
005655FF80
07FFFFFF80
1FFEABFF80
3FF001FF40
7FE002FF40
7FE002FF40
3FF957FF00
1FFFFFFF00
01BFFFFF80
000007FFF9
000006AA55
ENDCHAR
STARTCHAR ae
ENCODING 230
SWIDTH 1022 0
DWIDTH 33 0
BBX 33 19 0 -1
BITMAP
001AA9000000000000
01FFFFD00016940000
0BFEBFF806FFFF4000
1FE00BFD2FFFFFE000
3FE003FEBFE56FF800
3FF002FFFF8007FD00
3FE001FFFF4002FE00
1F8001FFFE0002FF00
005956FFFFFFFFFF40
0BFFFFFFFFFFFFFF40
3FFAAFFFFFAAA55500
BFD003FFFF00000000
FFC003FFFF80000800
FFD007FEBFF915B400
BFF55BFD2FFFFFE000
2FFFFFFD06FFFE4000
06FFFFFE4016500000
00000FFFE400000000
00000AA95500000000
ENDCHAR
STARTCHAR ccedilla
ENCODING 231
SWIDTH 589 0
DWIDTH 19 0
BBX 18 27 1 -11
BITMAP
0006AA4000
007FFFF800
02FFFFFE00
0BFE01FF80
2FF801FFC0
7FF001FFC0
BFE000FFC0
FFD0006E40
FFD0000000
FFD0000000
FFD0000010
BFE0000090
7FF40002D0
3FFD001BC0
1FFFE6BF40
07FFFFFE00
01FFFFF400
001BFE4000
0003E00000
000BE40000
001FFE0000
001AFF4000
00001F8000
00050F8000
001FAF4000
001FFF0000
0007F80000
ENDCHAR
STARTCHAR egrave
ENCODING 232
SWIDTH 593 0
DWIDTH 19 0
BBX 18 27 1 -2
BITMAP
0000050000
00006E0000
0002FF0000
0001FF4000
0000BF8000
00007FC000
00002FD000
00000F8000
0000040000
0000000000
0006A90000
00BFFFE000
07FFFFFC00
1FFE5BFE00
2FF402FF80
7FE000BFC0
BFD0007FD0
FFD5557FE0
FFFFFFFFE0
FFFFFFFFE0
BFD5555540
BFD0000000
3FF0000140
1FFE405E00
0BFFFFFC00
01FFFFE000
001BFA4000
ENDCHAR
STARTCHAR eacute
ENCODING 233
SWIDTH 593 0
DWIDTH 19 0
BBX 18 27 1 -2
BITMAP
0000290000
00003FD000
00007FC000
0000BF4000
0000FF0000
0001FD0000
0001B80000
0000040000
0000000000
0000000000
0006A90000
00BFFFE000
07FFFFFC00
1FFE5BFE00
2FF402FF80
7FE000BFC0
BFD0007FD0
FFD5557FE0
FFFFFFFFE0
FFFFFFFFE0
BFD5555540
BFD0000000
3FF0000140
1FFE405E00
0BFFFFFC00
01FFFFE000
001BFA4000
ENDCHAR
STARTCHAR ecircumflex
ENCODING 234
SWIDTH 593 0
DWIDTH 19 0
BBX 18 27 1 -2
BITMAP
0000200000
0000B80000
0002FE0000
0007FF4000
001FFFD000
003FEFF000
00BE02F800
00B4007400
0000000000
0000000000
0006A90000
00BFFFE000
07FFFFFC00
1FFE5BFE00
2FF402FF80
7FE000BFC0
BFD0007FD0
FFD5557FE0
FFFFFFFFE0
FFFFFFFFE0
BFD5555540
BFD0000000
3FF0000140
1FFE405E00
0BFFFFFC00
01FFFFE000
001BFA4000
ENDCHAR
STARTCHAR edieresis
ENCODING 235
SWIDTH 593 0
DWIDTH 19 0
BBX 18 24 1 -2
BITMAP
0004004000
002F43F000
003F87F800
002F83F400
000A019000
0000000000
0000000000
0006A90000
00BFFFE000
07FFFFFC00
1FFE5BFE00
2FF402FF80
7FE000BFC0
BFD0007FD0
FFD5557FE0
FFFFFFFFE0
FFFFFFFFE0
BFD5555540
BFD0000000
3FF0000140
1FFE405E00
0BFFFFFC00
01FFFFE000
001BFA4000
ENDCHAR
STARTCHAR igrave
ENCODING 236
SWIDTH 393 0
DWIDTH 13 0
BBX 15 28 -1 0
BITMAP
00014000
001BC000
00BFD000
003FE000
002FF000
000FF400
0007F800
0003E400
00010000
00000000
00000000
6AAAA900
0BFFFD00
00BFFD00
000FFD00
000FFD00
000FFC00
000FFC00
000BFC00
000BFC00
000BF800
000BF800
000BF800
000BF800
000BF800
006FFD00
02FFFF80
1BFFFFF4
ENDCHAR
STARTCHAR iacute
ENCODING 237
SWIDTH 393 0
DWIDTH 13 0
BBX 15 27 -1 0
BITMAP
0000A400
0000FF40
0001FF00
0002FE00
0003FC00
0007F400
0006F000
00001000
00000000
00000000
6AAAA900
0BFFFD00
00BFFD00
000FFD00
000FFD00
000FFC00
000FFC00
000BFC00
000BFC00
000BF800
000BF800
000BF800
000BF800
000BF800
006FFD00
02FFFF80
1BFFFFF4
ENDCHAR
STARTCHAR icircumflex
ENCODING 238
SWIDTH 393 0
DWIDTH 13 0
BBX 15 28 -1 0
BITMAP
00014000
0003E000
000BF400
002FFD00
007FFF00
01FFBF80
03F81FE0
02D002D0
00000000
00000000
00000000
6AAAA900
0BFFFD00
00BFFD00
000FFD00
000FFD00
000FFC00
000FFC00
000BFC00
000BFC00
000BF800
000BF800
000BF800
000BF800
000BF800
006FFD00
02FFFF80
1BFFFFF4
ENDCHAR
STARTCHAR idieresis
ENCODING 239
SWIDTH 393 0
DWIDTH 13 0
BBX 15 25 -1 0
BITMAP
00000100
00BD0BD0
00FF1FE0
00BE0FD0
00280640
00000000
00000000
00000000
6AAAA900
0BFFFD00
00BFFD00
000FFD00
000FFD00
000FFC00
000FFC00
000BFC00
000BFC00
000BF800
000BF800
000BF800
000BF800
000BF800
006FFD00
02FFFF80
1BFFFFF4
ENDCHAR
STARTCHAR eth
ENCODING 240
SWIDTH 672 0
DWIDTH 22 0
BBX 23 29 -1 -3
BITMAP
006400000100
000B80001F00
0001F800BF80
00003F47FF40
00000BFFF800
000003FFD000
00001FFF4000
0000BFFFD000
000BFFEFF000
0007FE0FF800
0002F407FE00
00009002FF40
00000001FF80
00001554FFD0
001BFFFFFFE0
01FFFFFFFFF0
07FFE41BFFF0
1FFE0001FFF4
2FF800007FF4
3FF000003FF8
7FF000002FF4
7FF000002FF4
7FF000002FF0
3FF400003FE0
1FFC0000BFD0
0BFE0002FF80
02FFE9AFFE00
007FFFFFF400
0006BFFA4000
ENDCHAR
STARTCHAR ntilde
ENCODING 241
SWIDTH 643 0
DWIDTH 21 0
BBX 26 23 -3 2
BITMAP
000006E8090000
00001FFFBE0000
00001FFFFE0000
00001FBFFE0000
00001806F80000
00000000000000
00000000000000
00000500000000
005AFF06F90000
6FFFFFBFFFD000
06FFFFFFFFF000
001BFFEABFF400
0003FF402FF800
0003FE000FF800
0003FE000BF800
0002FE000BF800
0002FD000BF800
0001FD000BF800
0001FD000BF400
0006FE400BF400
00BFFFE40BF000
015555547FFD00
0000001BFFFF90
ENDCHAR
STARTCHAR ograve
ENCODING 242
SWIDTH 705 0
DWIDTH 23 0
BBX 23 27 0 -1
BITMAP
000000400000
00000BD00000
00003FE00000
00002FF00000
00000FF40000
00000BF80000
000003FC0000
000001E40000
000000400000
000000000000
000005400000
001BFFFE4000
01FFFFFFF800
0BFFE56FFF00
1FFE0002FFC0
3FF40000BFE0
7FF000007FF0
BFE000003FF0
BFD000003FF4
BFE000003FF0
7FF000007FF0
3FF40000BFE0
1FFD0002FF80
07FF956FFE00
00BFFFFFF400
001AFFFE4000
000005000000
ENDCHAR
STARTCHAR oacute
ENCODING 243
SWIDTH 705 0
DWIDTH 23 0
BBX 23 26 0 -1
BITMAP
000002900000
000003F90000
000007FC0000
00000BF40000
00000FF00000
00002FD00000
00001B800000
000001000000
000000000000
000005400000
001BFFFE4000
01FFFFFFF800
0BFFE56FFF00
1FFE0002FFC0
3FF40000BFE0
7FF000007FF0
BFE000003FF0
BFD000003FF4
BFE000003FF0
7FF000007FF0
3FF40000BFE0
1FFD0002FF80
07FF956FFE00
00BFFFFFF400
001AFFFE4000
000005000000
ENDCHAR
STARTCHAR ocircumflex
ENCODING 244
SWIDTH 705 0
DWIDTH 23 0
BBX 23 27 0 -1
BITMAP
000001400000
00000BC00000
00001FE00000
00003FF80000
0000FFFD0000
0002FEFF4000
0007F42FC000
000780068000
000000000000
000000000000
000005400000
001BFFFE4000
01FFFFFFF800
0BFFE56FFF00
1FFE0002FFC0
3FF40000BFE0
7FF000007FF0
BFE000003FF0
BFD000003FF4
BFE000003FF0
7FF000007FF0
3FF40000BFE0
1FFD0002FF80
07FF956FFE00
00BFFFFFF400
001AFFFE4000
000005000000
ENDCHAR
STARTCHAR otilde
ENCODING 245
SWIDTH 705 0
DWIDTH 23 0
BBX 23 24 0 -1
BITMAP
0001BE418000
0003FFFBC000
0003FFFFC000
0003EFFFC000
000241BE4000
000000000000
000000000000
000005400000
001BFFFE4000
01FFFFFFF800
0BFFE56FFF00
1FFE0002FFC0
3FF40000BFE0
7FF000007FF0
BFE000003FF0
BFD000003FF4
BFE000003FF0
7FF000007FF0
3FF40000BFE0
1FFD0002FF80
07FF956FFE00
00BFFFFFF400
001AFFFE4000
000005000000
ENDCHAR
STARTCHAR odieresis
ENCODING 246
SWIDTH 705 0
DWIDTH 23 0
BBX 23 24 0 -1
BITMAP
000010040000
0001F82F4000
0002FC3F8000
0002FC3F8000
0000A01A0000
000000000000
000000000000
000005400000
001BFFFE4000
01FFFFFFF800
0BFFE56FFF00
1FFE0002FFC0
3FF40000BFE0
7FF000007FF0
BFE000003FF0
BFD000003FF4
BFE000003FF0
7FF000007FF0
3FF40000BFE0
1FFD0002FF80
07FF956FFE00
00BFFFFFF400
001AFFFE4000
000005000000
ENDCHAR
STARTCHAR divide
ENCODING 247
SWIDTH 504 0
DWIDTH 16 0
BBX 16 20 0 -1
BITMAP
00004000
000BF800
002FFE00
002FFE00
002FFE00
000BF800
00000000
65550000
BFFFFFFA
BFFFFFFE
BFFFFFFE
BFFFFFFE
55000000
00000000
000BF400
002FFD00
003FFE00
003FFD00
001FF800
00014000
ENDCHAR
STARTCHAR oslash
ENCODING 248
SWIDTH 705 0
DWIDTH 23 0
BBX 23 24 0 -4
BITMAP
000000004000
00000001E000
00000003FD00
0000000BFE00
0000055FFC00
001BFFFFF400
01FFFFFFF800
0BFFE5FFFF00
1FFE01FFFFC0
3FF403FEBFE0
7FF00BFD7FF0
BFE00FF83FF4
BFD02FF03FF4
BFE07FD03FF0
7FF0FF807FF0
3FF5FF00BFE0
1FFFFD02FF80
07FFFD6FFE00
00BFFFFFF400
002FFFFE4000
007FD5000000
00FF40000000
00BE00000000
001D00000000
ENDCHAR
STARTCHAR ugrave
ENCODING 249
SWIDTH 614 0
DWIDTH 20 0
BBX 25 28 -3 -2
BITMAP
00000050000000
000006E0000000
00002FF0000000
00001FF4000000
00000BF8000000
000003FC000000
000002FD000000
000000F8000000
00000040000000
00000000000000
6AAAA015555000
0BFFF06FFFF400
01BFF006FFF000
003FF0007FF000
003FE0003FE000
003FE0003FE000
003FE0003FD000
003FE0003FD000
003FD0003FC000
003FD0003FC000
003FD0007F8000
002FE0007F8000
001FF401FF4000
000FFEABFF4000
0007FFFFFF9000
0001BFFE7FFE40
000005507FA500
00000000100000
ENDCHAR
STARTCHAR uacute
ENCODING 250
SWIDTH 614 0
DWIDTH 20 0
BBX 25 27 -3 -2
BITMAP
00000039000000
0000007F800000
000000BF800000
000000FF000000
000001FE000000
000002FC000000
000001F8000000
00000010000000
00000000000000
6AAAA015555000
0BFFF06FFFF400
01BFF006FFF000
003FF0007FF000
003FE0003FE000
003FE0003FE000
003FE0003FD000
003FE0003FD000
003FD0003FC000
003FD0003FC000
003FD0007F8000
002FE0007F8000
001FF401FF4000
000FFEABFF4000
0007FFFFFF9000
0001BFFE7FFE40
000005507FA500
00000000100000
ENDCHAR
STARTCHAR ucircumflex
ENCODING 251
SWIDTH 614 0
DWIDTH 20 0
BBX 25 28 -3 -2
BITMAP
00000050000000
000000F4000000
000003FD000000
00000BFF000000
00001FFF800000
00007FEFE00000
0000FE07F40000
0000A400B40000
00000000000000
00000000000000
6AAAA015555000
0BFFF06FFFF400
01BFF006FFF000
003FF0007FF000
003FE0003FE000
003FE0003FE000
003FE0003FD000
003FE0003FD000
003FD0003FC000
003FD0003FC000
003FD0007F8000
002FE0007F8000
001FF401FF4000
000FFEABFF4000
0007FFFFFF9000
0001BFFE7FFE40
000005507FA500
00000000100000
ENDCHAR
STARTCHAR udieresis
ENCODING 252
SWIDTH 614 0
DWIDTH 20 0
BBX 25 25 -3 -2
BITMAP
00000001000000
0000BD0BD00000
0000FF1FE00000
0000BE0FD00000
00002806400000
00000000000000
00000000000000
6AAAA015555000
0BFFF06FFFF400
01BFF006FFF000
003FF0007FF000
003FE0003FE000
003FE0003FE000
003FE0003FD000
003FE0003FD000
003FD0003FC000
003FD0003FC000
003FD0007F8000
002FE0007F8000
001FF401FF4000
000FFEABFF4000
0007FFFFFF9000
0001BFFE7FFE40
000005507FA500
00000000100000
ENDCHAR
STARTCHAR yacute
ENCODING 253
SWIDTH 655 0
DWIDTH 21 0
BBX 22 41 -2 -15
BITMAP
000000E40000
000001FE0000
000002FE0000
000003FC0000
000007F80000
00000BF00000
000007E00000
000000400000
400000000000
390000000000
0FE402A95000
07FF907FFFE0
01FFF80BFFF0
00BFF401FFF0
00BFF000BFF0
00FFE000BFE0
01FFD000BFE0
02FFC000BFE0
02FFC000BFE0
03FF8000BFE0
02FFC000BFE0
01FFF400BFE0
00FFFFAFFFE0
007FFFFFFFD0
000BFFFEFFD0
00005540BFD0
00000000BFD0
00000000BFD0
00000000FFD0
00000000FFD0
00000000FFC0
00640000FFC0
01FE0001FFC0
02FF4001FF80
02FF0002FF40
02FD0007FF00
01FE001FFD00
007FE5BFF800
001FFFFFD000
0006FFFE0000
000015400000
ENDCHAR
STARTCHAR thorn
ENCODING 254
SWIDTH 734 0
DWIDTH 24 0
BBX 26 36 -2 -14
BITMAP
BFFFFF00000000
0BFFFF00000000
00BFFF00000000
000BFF00000000
0007FF00000000
0007FF00000000
0007FF00000000
0007FF00000000
0007FF00000000
0007FF00000000
0007FF00000000
0007FF05540000
0007FFFFFF9000
0007FFFFFFFD00
0007FF955FFF40
0003FF0001FFC0
0003FF0000BFD0
0003FF00003FE0
0003FF00003FE0
0003FF00003FE0
0003FF00007FE0
0003FF0000BFD0
0003FF4002FF80
0003FFFAAFFF00
0003FFFFFFF800
0003FFBFFF9000
0003FF00540000
0002FF00000000
0002FF00000000
0002FF00000000
0002FF00000000
0002FF00000000
0007FFD0000000
00BFFFFE400000
1BFFFFAA900000
15000000000000
ENDCHAR
STARTCHAR ydieresis
ENCODING 255
SWIDTH 655 0
DWIDTH 21 0
BBX 22 39 -2 -15
BITMAP
000000040000
0002F42F4000
0003FC7F8000
0002F83F4000
0000A0190000
000000000000
400000000000
390000000000
0FE402A95000
07FF907FFFE0
01FFF80BFFF0
00BFF401FFF0
00BFF000BFF0
00FFE000BFE0
01FFD000BFE0
02FFC000BFE0
02FFC000BFE0
03FF8000BFE0
02FFC000BFE0
01FFF400BFE0
00FFFFAFFFE0
007FFFFFFFD0
000BFFFEFFD0
00005540BFD0
00000000BFD0
00000000BFD0
00000000FFD0
00000000FFD0
00000000FFC0
00640000FFC0
01FE0001FFC0
02FF4001FF80
02FF0002FF40
02FD0007FF00
01FE001FFD00
007FE5BFF800
001FFFFFD000
0006FFFE0000
000015400000
ENDCHAR
STARTCHAR dotlessi
ENCODING 305
SWIDTH 393 0
DWIDTH 13 0
BBX 15 17 -1 0
BITMAP
6AAAA900
0BFFFD00
00BFFD00
000FFD00
000FFD00
000FFC00
000FFC00
000BFC00
000BFC00
000BF800
000BF800
000BF800
000BF800
000BF800
006FFD00
02FFFF80
1BFFFFF4
ENDCHAR
STARTCHAR Lslash
ENCODING 321
SWIDTH 713 0
DWIDTH 23 0
BBX 25 25 -2 0
BITMAP
6FFFFFFFF80000
06FFFFFE400000
001BFFE4000000
0003FFC0000000
0003FFC0000000
0003FFC0000000
0003FFC0000000
0003FFDB800000
0003FFFFC00000
0002FFFFE00000
0002FFFFE00000
001FFFFE400040
01FFFFE0000180
0BFFFF80000280
07FFFF80000380
02FAFF80000780
0141FF80000B80
0001FF80001F80
0001FF80002F80
0001FF80003F80
0001FF80007F80
0006FFFAAAFF80
006FFFFFFFFF80
06FFFFFFFFFA40
1AA95550000000
ENDCHAR
STARTCHAR lslash
ENCODING 322
SWIDTH 365 0
DWIDTH 12 0
BBX 17 31 -3 -3
BITMAP
5555550000
6FFFFF0000
01BFFF0000
000BFF0000
000BFF0000
000BFF0000
000BFF0000
000BFF0000
0007FF0000
0007FE0500
0007FFBF00
0007FFFF40
0007FFFF40
006FFFF400
07FFFF4000
1FFFFE0000
0FFFFE0000
0BFBFE0000
0383FD0000
0003FD0000
0003FD0000
0003FD0000
0002FD0000
0002FD0000
0002FD0000
0002FD0000
0002FD0000
0007FF4000
002FFFE000
01FFFFFD00
0555400000
ENDCHAR
STARTCHAR OE
ENCODING 338
SWIDTH 1195 0
DWIDTH 38 0
BBX 37 24 0 -1
BITMAP
000000000000556ABFC0
00000156AAFFFFFFFFC0
0000006FFFFFFFFFFFC0
00000001BFFFE5402FC0
0000000007FFC0001F80
0006FFE407FFC0000B80
00BFFFFF83FFC0080780
07FFEABFF7FFC0280380
0FFE001FFFFF80380280
2FF80007FFFF80780080
7FF00002FFFF80F40040
7FD00001FFFF86F40000
BFD00001FFFFFFF40000
BFD00001FFFFFFF40100
BFD00001FFFFFFF40200
7FE00001FFFF82F40300
3FF00003FFFF80F40700
1FF8000BFFFF80740B00
0BFE406FFAFF80240F00
02FFFFFFD2FF80041F00
006FFFFE02FF80002F00
0001AA506FFFFFFFFF40
00000006FFFFFFFFFF40
0000006AAAAAAAAAAA00
ENDCHAR
STARTCHAR oe
ENCODING 339
SWIDTH 1087 0
DWIDTH 35 0
BBX 35 17 0 -2
BITMAP
00016A500000000000
007FFFFD001BFF9000
07FFFFFFD1FFFFF800
0FFE407FFBFFFFFF00
2FF4000FFFFD02FFC0
7FD00007FFF000BFE0
BFC00003FFE0003FF0
BFC00002FFD0002FF4
BFC00002FFFFFFFFF4
7FC00003FFFFFFFFF4
3FE00007FFEAAAAAA4
2FF4001FFFD0000000
0BFE41BFFFF0000040
02FFFFFFAFFD001780
002FFFF80BFFFFFE00
0000550001FFFFF400
00000000001AFE4000
ENDCHAR
STARTCHAR Scaron
ENCODING 352
SWIDTH 661 0
DWIDTH 21 0
BBX 21 35 0 -3
BITMAP
000400050000
002F402F4000
000FF5FE0000
0007FFF80000
0001FFF00000
0000BFD00000
00002F800000
00000E000000
000000000000
000000000000
000000000140
001AFE900740
02FFFFFE4F40
0BFFABFFFF00
2FF8002FFF00
7FE00002FF00
BFE000007E00
BFF400001E00
BFFF90000A00
7FFFFF900100
2FFFFFFE0000
0BFFFFFFE000
01BFFFFFFC00
0006FFFFFF00
040016FFFF40
0800006FFF80
0A00000BFF80
0F400003FF80
0FE00007FF40
0FF9001FFE00
0FFFFAFFF800
1D2FFFFFD000
1C01AFE90000
140000000000
100000000000
ENDCHAR
STARTCHAR scaron
ENCODING 353
SWIDTH 533 0
DWIDTH 17 0
BBX 17 30 0 -1
BITMAP
0050001000
01F801F800
00BF5BF000
002FFFD000
000FFF4000
0007FE0000
0001F80000
0000B00000
0000000000
0000000000
001AA40200
02FFFF4300
0FFFFFEB00
2FE01BFF00
7FC001FF00
7FD0003E00
7FF8000E00
3FFF900600
1FFFFE4100
07FFFFE400
01BFFFFD00
101BFFFF40
28006FFFC0
2E0002FFC0
2F8000BFC0
3FF400FF80
3FFFABFF40
39FFFFFD00
701AFA9000
5000000000
ENDCHAR
STARTCHAR Ydieresis
ENCODING 376
SWIDTH 848 0
DWIDTH 27 0
BBX 33 31 -4 -3
BITMAP
000000010010000000
0000000BD1F8000000
0000001FE2FD000000
0000000FD1FC000000
000000064064000000
000000000000000000
000000000000000000
05556AAA4000000000
6FFFFFF90000000000
01BFFFE000AAAA5540
0006FFF0001FFFFE00
0000BFF80002FF9000
00002FFE0001F90000
00000BFF4007E00000
000002FFD01F800000
000000FFF07E000000
0000007FFDFC000000
0000001FFFF0000000
00000007FFD0000000
00000001FF40000000
00000001FF40000000
00000001FF40000000
00000001FF80000000
00000001FF80000000
00000001FF80000000
00000001FF80000000
00000001FFC0000000
00000002FFE0000000
0000002FFFFE400000
000006FFFFFFF90000
000005555000000000
ENDCHAR
STARTCHAR Zcaron
ENCODING 381
SWIDTH 685 0
DWIDTH 22 0
BBX 23 30 0 0
BITMAP
000100014000
000BD00BC000
0003F97F8000
0001FFFE0000
00007FFC0000
00002FF40000
00000FD00000
000003800000
000000000000
000000000000
0001555555A4
7FFFFFFFFFF4
3FFFFFFFFFD0
3FEAAAAFFF80
2F80003FFE00
1F4000FFFC00
0F4002FFF400
0B000BFFD000
0A002FFF8000
06007FFF0010
0101FFFC0050
0003FFF400D0
000FFFE001D0
002FFF8003D0
00BFFF000BD0
01FFFD000FD0
07FFF9556FC0
1FFFFFFFFFC0
3FFFFFFFFFC0
555555555540
ENDCHAR
STARTCHAR zcaron
ENCODING 382
SWIDTH 549 0
DWIDTH 18 0
BBX 19 29 0 -1
BITMAP
0010001000
00BD01FC00
007F9BF400
001FFFE000
000BFF8000
0003FF0000
0000FD0000
0000740000
0000000000
0000000000
0000000000
15556AAAA4
7FFFFFFFF0
7FFFFFFFD0
3F955BFF40
2F001FFE00
2F003FFC00
1E00BFF400
1D02FFE000
0C07FF8040
041FFF0180
003FFD0280
00BFF80380
02FFE00B80
07FFC00FC0
1FFFFAAFC0
3FFFFFFFC0
6AAFFFFFC0
0000015580
ENDCHAR
STARTCHAR circumflex
ENCODING 710
SWIDTH 714 0
DWIDTH 23 0
BBX 11 8 7 22
BITMAP
001400
00BC00
01FE00
07FF80
0FFFD0
2FEFF4
BF42FC
780078
ENDCHAR
STARTCHAR caron
ENCODING 711
SWIDTH 714 0
DWIDTH 23 0
BBX 11 8 7 22
BITMAP
100014
BD01BC
7F9BF8
1FFFE0
0BFFC0
02FF40
00FD00
007800
ENDCHAR
STARTCHAR breve
ENCODING 728
SWIDTH 715 0
DWIDTH 23 0
BBX 11 7 7 23
BITMAP
240024
7D00F8
3FEBF4
1FFFE0
0BFFC0
02FE00
001400
ENDCHAR
STARTCHAR dotaccent
ENCODING 729
SWIDTH 708 0
DWIDTH 23 0
BBX 5 5 9 26
BITMAP
0400
7E00
BF40
7F00
1900
ENDCHAR
STARTCHAR ring
ENCODING 730
SWIDTH 704 0
DWIDTH 23 0
BBX 7 7 9 23
BITMAP
0A80
3FF0
BEF8
F47C
B8B8
7FF4
1FD0
ENDCHAR
STARTCHAR ogonek
ENCODING 731
SWIDTH 988 0
DWIDTH 32 0
BBX 12 8 10 -4
BITMAP
2E0000
7E0000
BE0000
FF0000
FF9559
BFFFFD
3FFFF4
06BA40
ENDCHAR
STARTCHAR tilde
ENCODING 732
SWIDTH 707 0
DWIDTH 23 0
BBX 11 5 7 23
BITMAP
1B9024
7FFEF4
7FFFF4
7EFFF4
601BE0
ENDCHAR
STARTCHAR hungarumlaut
ENCODING 733
SWIDTH 671 0
DWIDTH 22 0
BBX 12 8 6 23
BITMAP
0A4290
0FF7FD
1FF7FC
2FDBF8
3FCFF0
7F5FD0
6E1BC0
050040
ENDCHAR
STARTCHAR endash
ENCODING 8211
SWIDTH 576 0
DWIDTH 18 0
BBX 15 6 2 9
BITMAP
00055550
FFFFFFF4
FFFFFFF4
FFFFFFF4
FFFFFFF4
01555554
ENDCHAR
STARTCHAR emdash
ENCODING 8212
SWIDTH 993 0
DWIDTH 32 0
BBX 28 5 2 9
BITMAP
AAAAAAFFFFFFFE
FFFFFFFFFFFFFE
FFFFFFFFFFFFFE
FFFFFFFFFFFFFE
5556AAAAAAAAAA
ENDCHAR
STARTCHAR quoteleft
ENCODING 8216
SWIDTH 261 0
DWIDTH 8 0
BBX 8 10 0 13
BITMAP
00E4
02FE
03FE
0BFD
1FFC
2FF8
7FF4
6FF0
06E0
0010
ENDCHAR
STARTCHAR quoteright
ENCODING 8217
SWIDTH 301 0
DWIDTH 10 0
BBX 8 10 1 13
BITMAP
0A40
0FF8
1FFD
2FFC
3FF4
7FE0
BFD0
FF80
2F40
0100
ENDCHAR
STARTCHAR quotesinglbase
ENCODING 8218
SWIDTH 332 0
DWIDTH 11 0
BBX 8 10 1 -3
BITMAP
0A40
0FF8
1FFD
2FFC
3FF4
7FE0
BFD0
FF80
2F40
0100
ENDCHAR
STARTCHAR quotedblleft
ENCODING 8220
SWIDTH 477 0
DWIDTH 15 0
BBX 15 10 0 13
BITMAP
00E40380
02FE0BF8
03FE1FF8
0BFD2FF4
1FFC7FF0
2FF8BFE0
7FF5FFD0
6FF1BFC0
06E01B80
00100100
ENDCHAR
STARTCHAR quotedblright
ENCODING 8221
SWIDTH 477 0
DWIDTH 15 0
BBX 15 10 0 13
BITMAP
07801D00
0BF92FE4
0FFE3FF8
1FFD7FF4
2FF8BFE0
3FF4FFC0
7FE1FF80
BFC2FF00
1B807D00
01000400
ENDCHAR
STARTCHAR quotedblbase
ENCODING 8222
SWIDTH 477 0
DWIDTH 15 0
BBX 15 10 0 -3
BITMAP
07801D00
0BF92FE4
0FFE3FF8
1FFD7FF4
2FF8BFE0
3FF4FFC0
7FE1FF80
BFC2FF00
1B807D00
01000400
ENDCHAR
STARTCHAR dagger
ENCODING 8224
SWIDTH 487 0
DWIDTH 16 0
BBX 15 37 0 -10
BITMAP
001AA800
002FF800
001FF800
001FF800
001FF800
001FF800
001FF800
101FF800
3FFFFE94
7FFFFFFC
7FFFFFF8
7FFFFFF8
7EAFFA94
001FF400
001FF400
001FF400
001FF400
001FF400
001FF400
000FF400
000FF400
000FF400
000FF400
000FF400
000FF400
000FF400
000FF400
000FF000
000FF000
000FF000
000FF000
000FF000
000FF000
000FF000
000FF000
000FF000
00055000
ENDCHAR
STARTCHAR daggerdbl
ENCODING 8225
SWIDTH 497 0
DWIDTH 16 0
BBX 15 37 0 -10
BITMAP
001AA800
002FF800
001FF800
001FF800
001FF800
001FF800
001FF800
101FF800
3FFFFE94
7FFFFFFC
7FFFFFF8
7FFFFFF8
7EAFFA94
001FF400
001FF400
001FF954
6ABFFFF8
7FFFFFF8
7FFFFFFC
3FFFFFFC
156FFAA8
000FF400
000FF400
000FF400
000FF400
000FF400
000FF400
000FF400
000FF000
000FF000
000FF000
000FF000
000FF000
000FF000
000FF000
000FF000
00055000
ENDCHAR
STARTCHAR bullet
ENCODING 8226
SWIDTH 275 0
DWIDTH 9 0
BBX 9 9 0 8
BITMAP
019000
1FFD00
7FFF00
BFFF80
FFFF80
FFFF80
BFFF40
3FFE00
0BF800
ENDCHAR
STARTCHAR ellipsis
ENCODING 8230
SWIDTH 787 0
DWIDTH 25 0
BBX 25 6 0 -3
BITMAP
06800190006400
3FF40FFD03FF00
BFF82FFE0BFF80
BFFC2FFF0BFF80
7FF41FFD07FF40
0A9006A401A900
ENDCHAR
STARTCHAR perthousand
ENCODING 8240
SWIDTH 888 0
DWIDTH 28 0
BBX 30 27 0 -2
BITMAP
0000001940000000
0154002FF0000000
1FFE003FE0000000
7FFFC07FD0000000
BE1FD0FF80000000
FD0BE1FF40000000
FD0FE2FF00000000
BF6FD3FD00000000
3FFF87FC00000000
0BFD0FF800000000
00501FF000000000
00002FE000000000
00003FD000000000
0000BF8000000000
0000FF4000000000
0001FF0000000000
0002FD0150005400
0003FC1FFE1BFE00
000BF87FFFBFFFC0
000FF4FE6FFF5FD0
001FE1FD0FFE0BE0
002FD0FD0FFE0BE0
003FC0FE6FFF5FD0
00BF407FFFBFFF80
00FF001FFD0BFE00
00BE000150005000
0004000000000000
ENDCHAR
STARTCHAR guilsinglleft
ENCODING 8249
SWIDTH 234 0
DWIDTH 8 0
BBX 7 17 0 -1
BITMAP
0014
0038
00BC
01F8
07F4
0FE0
2FD0
7FC0
BF80
7FC0
2FD0
0FE0
07F4
01F8
00BC
0038
0014
ENDCHAR
STARTCHAR guilsinglright
ENCODING 8250
SWIDTH 223 0
DWIDTH 7 0
BBX 7 17 0 -1
BITMAP
2000
7400
BD00
7F00
2F80
1FD0
0FF0
07F8
03FC
07F8
0FF0
1FD0
2F80
7F00
BD00
7400
2000
ENDCHAR
STARTCHAR fraction
ENCODING 8260
SWIDTH 600 0
DWIDTH 19 0
BBX 21 31 -1 -4
BITMAP
000000008000
00000001F400
00000003FE00
00000007FFC0
0000000FFF40
0000002FFE00
0000007FFD00
000000BFF800
000001FFF000
000003FFD000
00000BFF8000
00000FFF0000
00002FFD0000
00007FFC0000
0000BFF40000
0001FFE00000
0003FFC00000
000BFF400000
001FFE000000
002FFD000000
007FF8000000
00FFF0000000
01FFD0000000
03FF80000000
0BFF00000000
1FFD00000000
2FF800000000
7FF400000000
BFE000000000
1FC000000000
024000000000
ENDCHAR
STARTCHAR Euro
ENCODING 8364
SWIDTH 590 0
DWIDTH 19 0
BBX 20 20 -1 1
BITMAP
00001BF900
0001FFFFD0
000BFEAFF4
002FF403FD
007FD003FE
00BFC003FE
01FF4003FE
FFFFAA90A8
FFFFFFE000
FFFFFFE000
02FF000000
57FFAAA400
FFFFFFF801
AAFFFFFC07
00FFE0001E
007FF800BD
002FFFEBF8
000BFFFFE0
0001BFFF40
0000169400
ENDCHAR
STARTCHAR trademark
ENCODING 8482
SWIDTH 624 0
DWIDTH 20 0
BBX 21 15 0 9
BITMAP
024000000000
034000000000
074000000000
1F0000000000
FFE800000000
6FA800000000
2E0054405000
2E0BFFFBF800
2E00B9BE7C00
2E00B43C2D00
2D0474382C00
3D1474382C00
2FB5B938BE40
1FE001A90000
010000000000
ENDCHAR
STARTCHAR minus
ENCODING 8722
SWIDTH 549 0
DWIDTH 18 0
BBX 18 6 0 8
BITMAP
BEAA955500
BFFFFFFFD0
BFFFFFFFD0
BFFFFFFFC0
BFFFFFFFC0
6AA9555540
ENDCHAR
STARTCHAR fi
ENCODING 64257
SWIDTH 757 0
DWIDTH 24 0
BBX 28 44 -2 -13
BITMAP
0000006A900000
000007FFFE4000
00002FFFFFD000
0000BFD07FF400
0000FF401FFC00
0002FE0007FD00
0003FD000BFE00
0007FD001FFF00
0007FD001FFF00
0007FD001FFF00
0007FD000BFD00
0007FD0001A400
0007FD00000000
0007FD00000000
0007FE00055500
0BFFFFFFFFFF00
0BFFFFFFFFFF00
06ABFFAAAFFF00
0002FF400BFE00
0002FF4007FE00
0002FF4007FE00
0001FF8007FE00
0001FF8003FE00
0001FF8003FD00
0000FFC003FD00
0000FFC003FD00
0000FFC003FD00
0000BFD003FC00
0000BFD01FFF40
00007FD0BFFFE0
00007FE6FFFFF9
00007FE0000000
00003FE0000000
00003FF0000000
00002FF0000000
19002FF0000000
7F802FF0000000
BFD02FE0000000
BFC03FD0000000
7F807FC0000000
2FD0FF80000000
1FFFFE00000000
07FFF800000000
006A9000000000
ENDCHAR
STARTCHAR fl
ENCODING 64258
SWIDTH 776 0
DWIDTH 25 0
BBX 28 44 -2 -13
BITMAP
0000006BA40000
000007FFFF4000
00002FFFFFD000
00007F807FF400
0000FF001FFC00
0002FE000BFD00
0003FD000BFE00
0007FD0007FF00
0007FD0007FF00
0007FD0003FF40
0007FD0003FF40
0007FD0003FF40
0007FD0003FF40
0007FD0003FF40
0007FE0003FF40
0BFFFFFFC3FF40
0BFFFFFFC2FF40
06ABFFAA82FF40
0002FF4002FF00
0002FF4002FF00
0002FF4002FF00
0001FF8002FF00
0001FF8002FF00
0001FF8002FF00
0000FFC001FF00
0000FFC001FE00
0000FFC001FE00
0000BFD001FE00
0000BFD001FE00
00007FD001FE00
00007FE006FF80
00007FE01FFFF4
00003FE1BFFFFE
00003FF1555000
00002FF0000000
19002FF0000000
7F802FF0000000
BFD02FE0000000
BFC03FD0000000
7F807FC0000000
2FD0FF80000000
1FFFFE00000000
07FFF800000000
006A9000000000
ENDCHAR
STARTCHAR .notdef
ENCODING -1
SWIDTH 320 0
DWIDTH 10 0
BBX 1 1 0 0
BITMAP
00
ENDCHAR
ENDFONT
